SplineFontDB: 3.2
FontName: Cave-Story
FullName: Cave Story Regular
FamilyName: Cave Story
Weight: Book
Copyright: Copyright enigmansmp1824 2013
Version: 1.0
ItalicAngle: 0
UnderlinePosition: 77
UnderlineWidth: 51
Ascent: 819
Descent: 205
InvalidEm: 0
sfntRevision: 0x00010000
LayerCount: 2
Layer: 0 1 "Back" 1
Layer: 1 1 "Fore" 0
XUID: [1021 540 -327318836 943]
StyleMap: 0x0040
FSType: 4
OS2Version: 2
OS2_WeightWidthSlopeOnly: 0
OS2_UseTypoMetrics: 0
CreationTime: 1384204072
ModificationTime: 1631162031
PfmFamily: 81
TTFWeight: 400
TTFWidth: 5
LineGap: 0
VLineGap: 0
Panose: 0 0 4 0 0 0 0 0 0 0
OS2TypoAscent: 448
OS2TypoAOffset: 0
OS2TypoDescent: -128
OS2TypoDOffset: 0
OS2TypoLinegap: 0
OS2WinAscent: 512
OS2WinAOffset: 0
OS2WinDescent: 128
OS2WinDOffset: 0
HheadAscent: 512
HheadAOffset: 0
HheadDescent: -128
HheadDOffset: 0
OS2SubXSize: 512
OS2SubYSize: 512
OS2SubXOff: 0
OS2SubYOff: -64
OS2SupXSize: 512
OS2SupYSize: 512
OS2SupXOff: 0
OS2SupYOff: 512
OS2StrikeYSize: 51
OS2StrikeYPos: 204
OS2CapHeight: 448
OS2XHeight: 320
OS2Vendor: 'FSTR'
OS2CodePages: 00000001.00000000
OS2UnicodeRanges: 80000003.00000008.00000000.00000000
DEI: 91125
ShortTable: maxp 16
  1
  0
  108
  108
  10
  0
  0
  2
  0
  0
  0
  0
  0
  0
  0
  0
EndShort
LangName: 1033 "" "" "Regular" "FontStruct Cave Story" "" "Version 1.0" "" "FontStruct is a trademark of FSI FontShop International GmbH" "http://fontstruct.com" "enigmansmp1824" "+IBoAxAD6-Cave Story+IBoAxAD5 was built with FontStruct+AAoA" "http://www.fontshop.com" "http://fontstruct.com/fontstructions/show/900184" "Creative Commons Attribution Share Alike" "http://creativecommons.org/licenses/by-sa/3.0/" "" "" "" "" "Five big quacking zephyrs jolt my wax bed"
Encoding: UnicodeBmp
UnicodeInterp: none
NameList: AGL For New Fonts
DisplaySize: -48
AntiAlias: 1
FitToEm: 0
WinInfo: 0 51 14
BeginChars: 65539 122

StartChar: .notdef
Encoding: 65536 -1 0
Width: 17
Flags: W
LayerCount: 2
Fore
SplineSet
224 63 m 1,0,-1
 224 134 l 1,1,-1
 152 134 l 1,2,-1
 152 63 l 1,3,-1
 224 63 l 1,0,-1
295 146 m 1,4,-1
 295 218 l 1,5,-1
 152 218 l 1,6,-1
 152 146 l 1,7,-1
 295 146 l 1,4,-1
224 229 m 1,8,-1
 224 301 l 1,9,-1
 152 301 l 1,10,-1
 152 229 l 1,11,-1
 224 229 l 1,8,-1
295 313 m 1,12,-1
 295 383 l 1,13,-1
 224 383 l 2,14,15
 194 383 194 383 173 363 c 0,16,17
 152 342 152 342 152 313 c 1,18,-1
 295 313 l 1,12,-1
0 0 m 1,19,-1
 0 448 l 1,20,-1
 448 448 l 1,21,-1
 448 0 l 1,22,-1
 0 0 l 1,19,-1
EndSplineSet
EndChar

StartChar: exclam
Encoding: 33 33 4
Width: 305
Flags: W
LayerCount: 2
Fore
SplineSet
64 0 m 1,0,-1
 64 64 l 1,1,-1
 192 64 l 1,2,-1
 192 0 l 1,3,-1
 64 0 l 1,0,-1
64 128 m 1,4,-1
 64 224 l 1,5,-1
 0 224 l 1,6,-1
 0 384 l 1,7,-1
 64 384 l 1,8,-1
 64 448 l 1,9,-1
 192 448 l 1,10,-1
 192 384 l 1,11,-1
 256 384 l 1,12,-1
 256 224 l 1,13,-1
 192 224 l 1,14,-1
 192 128 l 1,15,-1
 64 128 l 1,4,-1
EndSplineSet
EndChar

StartChar: quotedbl
Encoding: 34 34 5
Width: 209
Flags: W
LayerCount: 2
Fore
SplineSet
0 352 m 1,0,-1
 0 448 l 1,1,-1
 64 448 l 1,2,-1
 64 352 l 1,3,-1
 0 352 l 1,0,-1
96 352 m 1,4,-1
 96 448 l 1,5,-1
 160 448 l 1,6,-1
 160 352 l 1,7,-1
 96 352 l 1,4,-1
EndSplineSet
EndChar

StartChar: numbersign
Encoding: 35 35 6
Width: 369
Flags: W
LayerCount: 2
Fore
SplineSet
192 192 m 1,0,-1
 192 256 l 1,1,-1
 128 256 l 1,2,-1
 128 192 l 1,3,-1
 192 192 l 1,0,-1
32 0 m 1,4,-1
 32 128 l 1,5,-1
 0 128 l 1,6,-1
 0 192 l 1,7,-1
 64 192 l 1,8,-1
 64 256 l 1,9,-1
 0 256 l 1,10,-1
 0 320 l 1,11,-1
 96 320 l 1,12,-1
 96 448 l 1,13,-1
 160 448 l 1,14,-1
 160 320 l 1,15,-1
 224 320 l 1,16,-1
 224 448 l 1,17,-1
 288 448 l 1,18,-1
 288 320 l 1,19,-1
 320 320 l 1,20,-1
 320 256 l 1,21,-1
 256 256 l 1,22,-1
 256 192 l 1,23,-1
 320 192 l 1,24,-1
 320 128 l 1,25,-1
 224 128 l 1,26,-1
 224 0 l 1,27,-1
 160 0 l 1,28,-1
 160 128 l 1,29,-1
 96 128 l 1,30,-1
 96 0 l 1,31,-1
 32 0 l 1,4,-1
EndSplineSet
EndChar

StartChar: dollar
Encoding: 36 36 7
Width: 369
Flags: W
LayerCount: 2
Fore
SplineSet
256 96 m 1,0,-1
 256 192 l 1,1,-1
 192 192 l 1,2,-1
 192 96 l 1,3,-1
 256 96 l 1,0,-1
128 224 m 1,4,-1
 128 352 l 1,5,-1
 96 352 l 1,6,-1
 96 224 l 1,7,-1
 128 224 l 1,4,-1
128 0 m 1,8,-1
 128 32 l 1,9,-1
 64 32 l 1,10,-1
 64 64 l 1,11,-1
 0 64 l 1,12,-1
 0 128 l 1,13,-1
 96 128 l 1,14,-1
 96 96 l 1,15,-1
 128 96 l 1,16,-1
 128 192 l 1,17,-1
 64 192 l 1,18,-1
 64 224 l 1,19,-1
 0 224 l 1,20,-1
 0 352 l 1,21,-1
 64 352 l 1,22,-1
 64 416 l 1,23,-1
 128 416 l 1,24,-1
 128 448 l 1,25,-1
 192 448 l 1,26,-1
 192 416 l 1,27,-1
 256 416 l 1,28,-1
 256 352 l 1,29,-1
 320 352 l 1,30,-1
 320 288 l 1,31,-1
 224 288 l 1,32,-1
 224 352 l 1,33,-1
 192 352 l 1,34,-1
 192 224 l 1,35,-1
 288 224 l 1,36,-1
 288 192 l 1,37,-1
 320 192 l 1,38,-1
 320 96 l 1,39,-1
 288 96 l 1,40,-1
 288 32 l 1,41,-1
 192 32 l 1,42,-1
 192 0 l 1,43,-1
 128 0 l 1,8,-1
EndSplineSet
EndChar

StartChar: percent
Encoding: 37 37 8
Width: 401
Flags: W
LayerCount: 2
Fore
SplineSet
256 96 m 1,0,-1
 256 128 l 1,1,-1
 320 128 l 1,2,-1
 320 96 l 1,3,-1
 256 96 l 1,0,-1
224 128 m 1,4,-1
 224 192 l 1,5,-1
 256 192 l 1,6,-1
 256 128 l 1,7,-1
 224 128 l 1,4,-1
320 128 m 1,8,-1
 320 192 l 1,9,-1
 352 192 l 1,10,-1
 352 128 l 1,11,-1
 320 128 l 1,8,-1
256 192 m 1,12,-1
 256 224 l 1,13,-1
 320 224 l 1,14,-1
 320 192 l 1,15,-1
 256 192 l 1,12,-1
32 224 m 1,16,-1
 32 256 l 1,17,-1
 96 256 l 1,18,-1
 96 224 l 1,19,-1
 32 224 l 1,16,-1
0 256 m 1,20,-1
 0 320 l 1,21,-1
 32 320 l 1,22,-1
 32 256 l 1,23,-1
 0 256 l 1,20,-1
96 256 m 1,24,-1
 96 320 l 1,25,-1
 128 320 l 1,26,-1
 128 256 l 1,27,-1
 96 256 l 1,24,-1
32 320 m 1,28,-1
 32 352 l 1,29,-1
 96 352 l 1,30,-1
 96 320 l 1,31,-1
 32 320 l 1,28,-1
64 0 m 1,32,-1
 64 96 l 1,33,-1
 96 96 l 1,34,-1
 96 160 l 1,35,-1
 128 160 l 1,36,-1
 128 224 l 1,37,-1
 160 224 l 1,38,-1
 160 288 l 1,39,-1
 192 288 l 1,40,-1
 192 352 l 1,41,-1
 224 352 l 1,42,-1
 224 448 l 1,43,-1
 288 448 l 1,44,-1
 288 352 l 1,45,-1
 256 352 l 1,46,-1
 256 288 l 1,47,-1
 224 288 l 1,48,-1
 224 224 l 1,49,-1
 192 224 l 1,50,-1
 192 160 l 1,51,-1
 160 160 l 1,52,-1
 160 96 l 1,53,-1
 128 96 l 1,54,-1
 128 0 l 1,55,-1
 64 0 l 1,32,-1
EndSplineSet
EndChar

StartChar: ampersand
Encoding: 38 38 9
Width: 401
Flags: W
LayerCount: 2
Fore
SplineSet
192 64 m 1,0,-1
 192 128 l 1,1,-1
 160 128 l 1,2,-1
 160 160 l 1,3,-1
 128 160 l 1,4,-1
 128 224 l 1,5,-1
 96 224 l 1,6,-1
 96 160 l 1,7,-1
 64 160 l 1,8,-1
 64 96 l 1,9,-1
 96 96 l 1,10,-1
 96 64 l 1,11,-1
 192 64 l 1,0,-1
160 288 m 1,12,-1
 160 320 l 1,13,-1
 192 320 l 1,14,-1
 192 384 l 1,15,-1
 160 384 l 1,16,-1
 160 416 l 1,17,-1
 128 416 l 1,18,-1
 128 384 l 1,19,-1
 96 384 l 1,20,-1
 96 288 l 1,21,-1
 160 288 l 1,12,-1
64 0 m 1,22,-1
 64 32 l 1,23,-1
 32 32 l 1,24,-1
 32 96 l 1,25,-1
 0 96 l 1,26,-1
 0 160 l 1,27,-1
 32 160 l 1,28,-1
 32 224 l 1,29,-1
 64 224 l 1,30,-1
 64 288 l 1,31,-1
 32 288 l 1,32,-1
 32 384 l 1,33,-1
 64 384 l 1,34,-1
 64 416 l 1,35,-1
 96 416 l 1,36,-1
 96 448 l 1,37,-1
 192 448 l 1,38,-1
 192 416 l 1,39,-1
 224 416 l 1,40,-1
 224 384 l 1,41,-1
 256 384 l 1,42,-1
 256 320 l 1,43,-1
 224 320 l 1,44,-1
 224 288 l 1,45,-1
 192 288 l 1,46,-1
 192 256 l 1,47,-1
 160 256 l 1,48,-1
 160 224 l 1,49,-1
 192 224 l 1,50,-1
 192 160 l 1,51,-1
 224 160 l 1,52,-1
 224 128 l 1,53,-1
 256 128 l 1,54,-1
 256 160 l 1,55,-1
 288 160 l 1,56,-1
 288 192 l 1,57,-1
 352 192 l 1,58,-1
 352 160 l 1,59,-1
 320 160 l 1,60,-1
 320 128 l 1,61,-1
 288 128 l 1,62,-1
 288 96 l 1,63,-1
 320 96 l 1,64,-1
 320 64 l 1,65,-1
 352 64 l 1,66,-1
 352 0 l 1,67,-1
 288 0 l 1,68,-1
 288 32 l 1,69,-1
 256 32 l 1,70,-1
 256 64 l 1,71,-1
 224 64 l 1,72,-1
 224 32 l 1,73,-1
 192 32 l 1,74,-1
 192 0 l 1,75,-1
 64 0 l 1,22,-1
EndSplineSet
EndChar

StartChar: quotesingle
Encoding: 39 39 10
Width: 113
Flags: W
LayerCount: 2
Fore
SplineSet
0 352 m 1,0,-1
 0 448 l 1,1,-1
 64 448 l 1,2,-1
 64 352 l 1,3,-1
 0 352 l 1,0,-1
EndSplineSet
EndChar

StartChar: parenleft
Encoding: 40 40 11
Width: 241
Flags: W
LayerCount: 2
Fore
SplineSet
128 0 m 1,0,-1
 128 64 l 1,1,-1
 192 64 l 1,2,-1
 192 0 l 1,3,-1
 128 0 l 1,0,-1
64 64 m 1,4,-1
 64 128 l 1,5,-1
 128 128 l 1,6,-1
 128 64 l 1,7,-1
 64 64 l 1,4,-1
0 128 m 1,8,-1
 0 320 l 1,9,-1
 64 320 l 1,10,-1
 64 128 l 1,11,-1
 0 128 l 1,8,-1
64 320 m 1,12,-1
 64 384 l 1,13,-1
 128 384 l 1,14,-1
 128 320 l 1,15,-1
 64 320 l 1,12,-1
128 384 m 1,16,-1
 128 448 l 1,17,-1
 192 448 l 1,18,-1
 192 384 l 1,19,-1
 128 384 l 1,16,-1
EndSplineSet
EndChar

StartChar: parenright
Encoding: 41 41 12
Width: 241
Flags: W
LayerCount: 2
Fore
SplineSet
0 0 m 1,0,-1
 0 64 l 1,1,-1
 64 64 l 1,2,-1
 64 0 l 1,3,-1
 0 0 l 1,0,-1
64 64 m 1,4,-1
 64 128 l 1,5,-1
 128 128 l 1,6,-1
 128 64 l 1,7,-1
 64 64 l 1,4,-1
128 128 m 1,8,-1
 128 320 l 1,9,-1
 192 320 l 1,10,-1
 192 128 l 1,11,-1
 128 128 l 1,8,-1
64 320 m 1,12,-1
 64 384 l 1,13,-1
 128 384 l 1,14,-1
 128 320 l 1,15,-1
 64 320 l 1,12,-1
0 384 m 1,16,-1
 0 448 l 1,17,-1
 64 448 l 1,18,-1
 64 384 l 1,19,-1
 0 384 l 1,16,-1
EndSplineSet
EndChar

StartChar: asterisk
Encoding: 42 42 13
Width: 209
Flags: W
LayerCount: 2
Fore
SplineSet
32 320 m 1,0,-1
 32 384 l 1,1,-1
 0 384 l 1,2,-1
 0 416 l 1,3,-1
 64 416 l 1,4,-1
 64 448 l 1,5,-1
 96 448 l 1,6,-1
 96 416 l 1,7,-1
 160 416 l 1,8,-1
 160 384 l 1,9,-1
 128 384 l 1,10,-1
 128 320 l 1,11,-1
 96 320 l 1,12,-1
 96 352 l 1,13,-1
 64 352 l 1,14,-1
 64 320 l 1,15,-1
 32 320 l 1,0,-1
EndSplineSet
EndChar

StartChar: plus
Encoding: 43 43 14
Width: 433
Flags: W
LayerCount: 2
Fore
SplineSet
128 32 m 1,0,-1
 128 160 l 1,1,-1
 0 160 l 1,2,-1
 0 288 l 1,3,-1
 128 288 l 1,4,-1
 128 416 l 1,5,-1
 256 416 l 1,6,-1
 256 288 l 1,7,-1
 384 288 l 1,8,-1
 384 160 l 1,9,-1
 256 160 l 1,10,-1
 256 32 l 1,11,-1
 128 32 l 1,0,-1
EndSplineSet
EndChar

StartChar: comma
Encoding: 44 44 15
Width: 177
Flags: W
LayerCount: 2
Fore
SplineSet
0 0 m 1,0,-1
 0 64 l 1,1,-1
 64 64 l 1,2,-1
 64 128 l 1,3,-1
 128 128 l 1,4,-1
 128 0 l 1,5,-1
 0 0 l 1,0,-1
EndSplineSet
EndChar

StartChar: hyphen
Encoding: 45 45 16
Width: 369
Flags: W
LayerCount: 2
Fore
SplineSet
0 160 m 1,0,-1
 0 224 l 1,1,-1
 320 224 l 1,2,-1
 320 160 l 1,3,-1
 0 160 l 1,0,-1
EndSplineSet
EndChar

StartChar: period
Encoding: 46 46 17
Width: 177
Flags: W
LayerCount: 2
Fore
SplineSet
0 0 m 1,0,-1
 0 128 l 1,1,-1
 128 128 l 1,2,-1
 128 0 l 1,3,-1
 0 0 l 1,0,-1
EndSplineSet
EndChar

StartChar: slash
Encoding: 47 47 18
Width: 305
Flags: W
LayerCount: 2
Fore
SplineSet
0 0 m 1,0,-1
 0 64 l 1,1,-1
 32 64 l 1,2,-1
 32 128 l 1,3,-1
 64 128 l 1,4,-1
 64 192 l 1,5,-1
 96 192 l 1,6,-1
 96 256 l 1,7,-1
 128 256 l 1,8,-1
 128 320 l 1,9,-1
 160 320 l 1,10,-1
 160 384 l 1,11,-1
 192 384 l 1,12,-1
 192 448 l 1,13,-1
 256 448 l 1,14,-1
 256 384 l 1,15,-1
 224 384 l 1,16,-1
 224 320 l 1,17,-1
 192 320 l 1,18,-1
 192 256 l 1,19,-1
 160 256 l 1,20,-1
 160 192 l 1,21,-1
 128 192 l 1,22,-1
 128 128 l 1,23,-1
 96 128 l 1,24,-1
 96 64 l 1,25,-1
 64 64 l 1,26,-1
 64 0 l 1,27,-1
 0 0 l 1,0,-1
EndSplineSet
EndChar

StartChar: zero
Encoding: 48 48 19
Width: 497
Flags: W
LayerCount: 2
Fore
SplineSet
128 0 m 1,0,-1
 128 64 l 1,1,-1
 64 64 l 1,2,-1
 64 128 l 1,3,-1
 0 128 l 1,4,-1
 0 320 l 1,5,-1
 64 320 l 1,6,-1
 64 384 l 1,7,-1
 128 384 l 1,8,-1
 128 128 l 1,9,-1
 192 128 l 1,10,-1
 192 64 l 1,11,-1
 320 64 l 1,12,-1
 320 0 l 1,13,-1
 128 0 l 1,0,-1
320 64 m 1,14,-1
 320 320 l 1,15,-1
 256 320 l 1,16,-1
 256 384 l 1,17,-1
 128 384 l 1,18,-1
 128 448 l 1,19,-1
 320 448 l 1,20,-1
 320 384 l 1,21,-1
 384 384 l 1,22,-1
 384 320 l 1,23,-1
 448 320 l 1,24,-1
 448 128 l 1,25,-1
 384 128 l 1,26,-1
 384 64 l 1,27,-1
 320 64 l 1,14,-1
EndSplineSet
EndChar

StartChar: one
Encoding: 49 49 20
Width: 433
Flags: W
LayerCount: 2
Fore
SplineSet
0 0 m 1,0,-1
 0 64 l 1,1,-1
 128 64 l 1,2,-1
 128 320 l 1,3,-1
 64 320 l 1,4,-1
 64 384 l 1,5,-1
 128 384 l 1,6,-1
 128 448 l 1,7,-1
 256 448 l 1,8,-1
 256 64 l 1,9,-1
 384 64 l 1,10,-1
 384 0 l 1,11,-1
 0 0 l 1,0,-1
EndSplineSet
EndChar

StartChar: two
Encoding: 50 50 21
Width: 497
Flags: W
LayerCount: 2
Fore
SplineSet
0 0 m 1,0,-1
 0 128 l 1,1,-1
 64 128 l 1,2,-1
 64 192 l 1,3,-1
 128 192 l 1,4,-1
 128 256 l 1,5,-1
 256 256 l 1,6,-1
 256 320 l 1,7,-1
 320 320 l 1,8,-1
 320 384 l 1,9,-1
 128 384 l 1,10,-1
 128 320 l 1,11,-1
 0 320 l 1,12,-1
 0 384 l 1,13,-1
 64 384 l 1,14,-1
 64 448 l 1,15,-1
 384 448 l 1,16,-1
 384 384 l 1,17,-1
 448 384 l 1,18,-1
 448 256 l 1,19,-1
 384 256 l 1,20,-1
 384 192 l 1,21,-1
 320 192 l 1,22,-1
 320 128 l 1,23,-1
 192 128 l 1,24,-1
 192 64 l 1,25,-1
 448 64 l 1,26,-1
 448 0 l 1,27,-1
 0 0 l 1,0,-1
EndSplineSet
EndChar

StartChar: three
Encoding: 51 51 22
Width: 497
Flags: W
LayerCount: 2
Fore
SplineSet
64 0 m 1,0,-1
 64 64 l 1,1,-1
 0 64 l 1,2,-1
 0 128 l 1,3,-1
 128 128 l 1,4,-1
 128 64 l 1,5,-1
 320 64 l 1,6,-1
 320 192 l 1,7,-1
 128 192 l 1,8,-1
 128 256 l 1,9,-1
 192 256 l 1,10,-1
 192 320 l 1,11,-1
 256 320 l 1,12,-1
 256 384 l 1,13,-1
 32 384 l 1,14,-1
 32 448 l 1,15,-1
 448 448 l 1,16,-1
 448 384 l 1,17,-1
 384 384 l 1,18,-1
 384 320 l 1,19,-1
 320 320 l 1,20,-1
 320 256 l 1,21,-1
 384 256 l 1,22,-1
 384 192 l 1,23,-1
 448 192 l 1,24,-1
 448 64 l 1,25,-1
 384 64 l 1,26,-1
 384 0 l 1,27,-1
 64 0 l 1,0,-1
EndSplineSet
EndChar

StartChar: four
Encoding: 52 52 23
Width: 497
Flags: W
LayerCount: 2
Fore
SplineSet
256 192 m 1,0,-1
 256 320 l 1,1,-1
 192 320 l 1,2,-1
 192 256 l 1,3,-1
 128 256 l 1,4,-1
 128 192 l 1,5,-1
 256 192 l 1,0,-1
256 0 m 1,6,-1
 256 128 l 1,7,-1
 0 128 l 1,8,-1
 0 256 l 1,9,-1
 64 256 l 1,10,-1
 64 320 l 1,11,-1
 128 320 l 1,12,-1
 128 384 l 1,13,-1
 192 384 l 1,14,-1
 192 448 l 1,15,-1
 384 448 l 1,16,-1
 384 192 l 1,17,-1
 448 192 l 1,18,-1
 448 128 l 1,19,-1
 384 128 l 1,20,-1
 384 0 l 1,21,-1
 256 0 l 1,6,-1
EndSplineSet
EndChar

StartChar: five
Encoding: 53 53 24
Width: 433
Flags: W
LayerCount: 2
Fore
SplineSet
64 0 m 1,0,-1
 64 64 l 1,1,-1
 0 64 l 1,2,-1
 0 128 l 1,3,-1
 128 128 l 1,4,-1
 128 64 l 1,5,-1
 256 64 l 1,6,-1
 256 256 l 1,7,-1
 0 256 l 1,8,-1
 0 448 l 1,9,-1
 352 448 l 1,10,-1
 352 384 l 1,11,-1
 64 384 l 1,12,-1
 64 320 l 1,13,-1
 320 320 l 1,14,-1
 320 256 l 1,15,-1
 384 256 l 1,16,-1
 384 64 l 1,17,-1
 320 64 l 1,18,-1
 320 0 l 1,19,-1
 64 0 l 1,0,-1
EndSplineSet
EndChar

StartChar: six
Encoding: 54 54 25
Width: 497
Flags: W
LayerCount: 2
Fore
SplineSet
320 64 m 1,0,-1
 320 192 l 1,1,-1
 128 192 l 1,2,-1
 128 64 l 1,3,-1
 320 64 l 1,0,-1
64 0 m 1,4,-1
 64 64 l 1,5,-1
 0 64 l 1,6,-1
 0 320 l 1,7,-1
 64 320 l 1,8,-1
 64 384 l 1,9,-1
 128 384 l 1,10,-1
 128 448 l 1,11,-1
 416 448 l 1,12,-1
 416 384 l 1,13,-1
 192 384 l 1,14,-1
 192 320 l 1,15,-1
 128 320 l 1,16,-1
 128 256 l 1,17,-1
 416 256 l 1,18,-1
 416 192 l 1,19,-1
 448 192 l 1,20,-1
 448 64 l 1,21,-1
 384 64 l 1,22,-1
 384 0 l 1,23,-1
 64 0 l 1,4,-1
EndSplineSet
EndChar

StartChar: seven
Encoding: 55 55 26
Width: 497
Flags: W
LayerCount: 2
Fore
SplineSet
128 0 m 1,0,-1
 128 192 l 1,1,-1
 192 192 l 1,2,-1
 192 256 l 1,3,-1
 256 256 l 1,4,-1
 256 320 l 1,5,-1
 320 320 l 1,6,-1
 320 384 l 1,7,-1
 128 384 l 1,8,-1
 128 320 l 1,9,-1
 0 320 l 1,10,-1
 0 448 l 1,11,-1
 448 448 l 1,12,-1
 448 320 l 1,13,-1
 384 320 l 1,14,-1
 384 256 l 1,15,-1
 320 256 l 1,16,-1
 320 192 l 1,17,-1
 256 192 l 1,18,-1
 256 0 l 1,19,-1
 128 0 l 1,0,-1
EndSplineSet
EndChar

StartChar: eight
Encoding: 56 56 27
Width: 465
Flags: W
LayerCount: 2
Fore
SplineSet
288 64 m 1,0,-1
 288 192 l 1,1,-1
 128 192 l 1,2,-1
 128 64 l 1,3,-1
 288 64 l 1,0,-1
288 256 m 1,4,-1
 288 384 l 1,5,-1
 128 384 l 1,6,-1
 128 256 l 1,7,-1
 288 256 l 1,4,-1
64 0 m 1,8,-1
 64 64 l 1,9,-1
 0 64 l 1,10,-1
 0 192 l 1,11,-1
 64 192 l 1,12,-1
 64 256 l 1,13,-1
 0 256 l 1,14,-1
 0 384 l 1,15,-1
 64 384 l 1,16,-1
 64 448 l 1,17,-1
 352 448 l 1,18,-1
 352 384 l 1,19,-1
 416 384 l 1,20,-1
 416 256 l 1,21,-1
 352 256 l 1,22,-1
 352 192 l 1,23,-1
 416 192 l 1,24,-1
 416 64 l 1,25,-1
 352 64 l 1,26,-1
 352 0 l 1,27,-1
 64 0 l 1,8,-1
EndSplineSet
EndChar

StartChar: nine
Encoding: 57 57 28
Width: 497
Flags: W
LayerCount: 2
Fore
SplineSet
320 256 m 1,0,-1
 320 384 l 1,1,-1
 128 384 l 1,2,-1
 128 256 l 1,3,-1
 320 256 l 1,0,-1
64 0 m 1,4,-1
 64 64 l 1,5,-1
 256 64 l 1,6,-1
 256 128 l 1,7,-1
 320 128 l 1,8,-1
 320 192 l 1,9,-1
 64 192 l 1,10,-1
 64 256 l 1,11,-1
 0 256 l 1,12,-1
 0 384 l 1,13,-1
 64 384 l 1,14,-1
 64 448 l 1,15,-1
 384 448 l 1,16,-1
 384 384 l 1,17,-1
 448 384 l 1,18,-1
 448 128 l 1,19,-1
 384 128 l 1,20,-1
 384 64 l 1,21,-1
 320 64 l 1,22,-1
 320 0 l 1,23,-1
 64 0 l 1,4,-1
EndSplineSet
EndChar

StartChar: colon
Encoding: 58 58 29
Width: 177
Flags: W
LayerCount: 2
Fore
SplineSet
32 96 m 1,0,-1
 32 160 l 1,1,-1
 128 160 l 1,2,-1
 128 96 l 1,3,-1
 32 96 l 1,0,-1
32 256 m 1,4,-1
 32 320 l 1,5,-1
 128 320 l 1,6,-1
 128 256 l 1,7,-1
 32 256 l 1,4,-1
EndSplineSet
EndChar

StartChar: semicolon
Encoding: 59 59 30
Width: 177
Flags: W
LayerCount: 2
Fore
SplineSet
32 0 m 1,0,-1
 32 64 l 1,1,-1
 96 64 l 1,2,-1
 96 96 l 1,3,-1
 32 96 l 1,4,-1
 32 160 l 1,5,-1
 128 160 l 1,6,-1
 128 32 l 1,7,-1
 96 32 l 1,8,-1
 96 0 l 1,9,-1
 32 0 l 1,0,-1
32 224 m 1,10,-1
 32 288 l 1,11,-1
 128 288 l 1,12,-1
 128 224 l 1,13,-1
 32 224 l 1,10,-1
EndSplineSet
EndChar

StartChar: less
Encoding: 60 60 31
Width: 305
Flags: W
LayerCount: 2
Fore
SplineSet
192 0 m 1,0,-1
 192 64 l 1,1,-1
 256 64 l 1,2,-1
 256 0 l 1,3,-1
 192 0 l 1,0,-1
128 64 m 1,4,-1
 128 128 l 1,5,-1
 192 128 l 1,6,-1
 192 64 l 1,7,-1
 128 64 l 1,4,-1
64 128 m 1,8,-1
 64 192 l 1,9,-1
 128 192 l 1,10,-1
 128 128 l 1,11,-1
 64 128 l 1,8,-1
0 192 m 1,12,-1
 0 256 l 1,13,-1
 64 256 l 1,14,-1
 64 192 l 1,15,-1
 0 192 l 1,12,-1
64 256 m 1,16,-1
 64 320 l 1,17,-1
 128 320 l 1,18,-1
 128 256 l 1,19,-1
 64 256 l 1,16,-1
128 320 m 1,20,-1
 128 384 l 1,21,-1
 192 384 l 1,22,-1
 192 320 l 1,23,-1
 128 320 l 1,20,-1
192 384 m 1,24,-1
 192 448 l 1,25,-1
 256 448 l 1,26,-1
 256 384 l 1,27,-1
 192 384 l 1,24,-1
EndSplineSet
EndChar

StartChar: equal
Encoding: 61 61 32
Width: 305
Flags: W
LayerCount: 2
Fore
SplineSet
0 128 m 1,0,-1
 0 192 l 1,1,-1
 256 192 l 1,2,-1
 256 128 l 1,3,-1
 0 128 l 1,0,-1
0 224 m 1,4,-1
 0 288 l 1,5,-1
 256 288 l 1,6,-1
 256 224 l 1,7,-1
 0 224 l 1,4,-1
EndSplineSet
EndChar

StartChar: greater
Encoding: 62 62 33
Width: 305
Flags: W
LayerCount: 2
Fore
SplineSet
0 0 m 1,0,-1
 0 64 l 1,1,-1
 64 64 l 1,2,-1
 64 0 l 1,3,-1
 0 0 l 1,0,-1
64 64 m 1,4,-1
 64 128 l 1,5,-1
 128 128 l 1,6,-1
 128 64 l 1,7,-1
 64 64 l 1,4,-1
128 128 m 1,8,-1
 128 192 l 1,9,-1
 192 192 l 1,10,-1
 192 128 l 1,11,-1
 128 128 l 1,8,-1
192 192 m 1,12,-1
 192 256 l 1,13,-1
 256 256 l 1,14,-1
 256 192 l 1,15,-1
 192 192 l 1,12,-1
128 256 m 1,16,-1
 128 320 l 1,17,-1
 192 320 l 1,18,-1
 192 256 l 1,19,-1
 128 256 l 1,16,-1
64 320 m 1,20,-1
 64 384 l 1,21,-1
 128 384 l 1,22,-1
 128 320 l 1,23,-1
 64 320 l 1,20,-1
0 384 m 1,24,-1
 0 448 l 1,25,-1
 64 448 l 1,26,-1
 64 384 l 1,27,-1
 0 384 l 1,24,-1
EndSplineSet
EndChar

StartChar: question
Encoding: 63 63 34
Width: 433
Flags: W
LayerCount: 2
Fore
SplineSet
128 0 m 1,0,-1
 128 64 l 1,1,-1
 256 64 l 1,2,-1
 256 0 l 1,3,-1
 128 0 l 1,0,-1
128 96 m 1,4,-1
 128 192 l 1,5,-1
 256 192 l 1,6,-1
 256 384 l 1,7,-1
 128 384 l 1,8,-1
 128 256 l 1,9,-1
 0 256 l 1,10,-1
 0 384 l 1,11,-1
 64 384 l 1,12,-1
 64 448 l 1,13,-1
 320 448 l 1,14,-1
 320 384 l 1,15,-1
 384 384 l 1,16,-1
 384 192 l 1,17,-1
 320 192 l 1,18,-1
 320 128 l 1,19,-1
 256 128 l 1,20,-1
 256 96 l 1,21,-1
 128 96 l 1,4,-1
EndSplineSet
EndChar

StartChar: at
Encoding: 64 64 35
Width: 497
Flags: W
LayerCount: 2
Fore
SplineSet
256 160 m 1,0,-1
 256 288 l 1,1,-1
 192 288 l 1,2,-1
 192 160 l 1,3,-1
 256 160 l 1,0,-1
96 0 m 1,4,-1
 96 32 l 1,5,-1
 32 32 l 1,6,-1
 32 96 l 1,7,-1
 0 96 l 1,8,-1
 0 352 l 1,9,-1
 32 352 l 1,10,-1
 32 416 l 1,11,-1
 96 416 l 1,12,-1
 96 448 l 1,13,-1
 352 448 l 1,14,-1
 352 416 l 1,15,-1
 416 416 l 1,16,-1
 416 352 l 1,17,-1
 448 352 l 1,18,-1
 448 96 l 1,19,-1
 288 96 l 1,20,-1
 288 128 l 1,21,-1
 160 128 l 1,22,-1
 160 160 l 1,23,-1
 128 160 l 1,24,-1
 128 288 l 1,25,-1
 160 288 l 1,26,-1
 160 320 l 1,27,-1
 320 320 l 1,28,-1
 320 160 l 1,29,-1
 384 160 l 1,30,-1
 384 352 l 1,31,-1
 352 352 l 1,32,-1
 352 384 l 1,33,-1
 96 384 l 1,34,-1
 96 352 l 1,35,-1
 64 352 l 1,36,-1
 64 96 l 1,37,-1
 96 96 l 1,38,-1
 96 64 l 1,39,-1
 384 64 l 1,40,-1
 384 0 l 1,41,-1
 96 0 l 1,4,-1
EndSplineSet
EndChar

StartChar: A
Encoding: 65 65 36
Width: 497
Flags: W
LayerCount: 2
Fore
SplineSet
320 192 m 1,0,-1
 320 320 l 1,1,-1
 256 320 l 1,2,-1
 256 384 l 1,3,-1
 192 384 l 1,4,-1
 192 320 l 1,5,-1
 128 320 l 1,6,-1
 128 192 l 1,7,-1
 320 192 l 1,0,-1
0 0 m 1,8,-1
 0 320 l 1,9,-1
 64 320 l 1,10,-1
 64 384 l 1,11,-1
 128 384 l 1,12,-1
 128 448 l 1,13,-1
 320 448 l 1,14,-1
 320 384 l 1,15,-1
 384 384 l 1,16,-1
 384 320 l 1,17,-1
 448 320 l 1,18,-1
 448 0 l 1,19,-1
 320 0 l 1,20,-1
 320 128 l 1,21,-1
 128 128 l 1,22,-1
 128 0 l 1,23,-1
 0 0 l 1,8,-1
EndSplineSet
EndChar

StartChar: B
Encoding: 66 66 37
Width: 497
Flags: W
LayerCount: 2
Fore
SplineSet
320 64 m 1,0,-1
 320 192 l 1,1,-1
 128 192 l 1,2,-1
 128 64 l 1,3,-1
 320 64 l 1,0,-1
320 256 m 1,4,-1
 320 384 l 1,5,-1
 128 384 l 1,6,-1
 128 256 l 1,7,-1
 320 256 l 1,4,-1
0 0 m 1,8,-1
 0 448 l 1,9,-1
 384 448 l 1,10,-1
 384 384 l 1,11,-1
 448 384 l 1,12,-1
 448 256 l 1,13,-1
 384 256 l 1,14,-1
 384 192 l 1,15,-1
 448 192 l 1,16,-1
 448 64 l 1,17,-1
 384 64 l 1,18,-1
 384 0 l 1,19,-1
 0 0 l 1,8,-1
EndSplineSet
EndChar

StartChar: C
Encoding: 67 67 38
Width: 497
Flags: W
LayerCount: 2
Fore
SplineSet
128 0 m 1,0,-1
 128 64 l 1,1,-1
 64 64 l 1,2,-1
 64 128 l 1,3,-1
 0 128 l 1,4,-1
 0 320 l 1,5,-1
 64 320 l 1,6,-1
 64 384 l 1,7,-1
 128 384 l 1,8,-1
 128 448 l 1,9,-1
 384 448 l 1,10,-1
 384 384 l 1,11,-1
 448 384 l 1,12,-1
 448 320 l 1,13,-1
 320 320 l 1,14,-1
 320 384 l 1,15,-1
 192 384 l 1,16,-1
 192 320 l 1,17,-1
 128 320 l 1,18,-1
 128 128 l 1,19,-1
 192 128 l 1,20,-1
 192 64 l 1,21,-1
 320 64 l 1,22,-1
 320 128 l 1,23,-1
 448 128 l 1,24,-1
 448 64 l 1,25,-1
 384 64 l 1,26,-1
 384 0 l 1,27,-1
 128 0 l 1,0,-1
EndSplineSet
EndChar

StartChar: D
Encoding: 68 68 39
Width: 497
Flags: W
LayerCount: 2
Fore
SplineSet
256 64 m 1,0,-1
 256 128 l 1,1,-1
 320 128 l 1,2,-1
 320 320 l 1,3,-1
 256 320 l 1,4,-1
 256 384 l 1,5,-1
 128 384 l 1,6,-1
 128 64 l 1,7,-1
 256 64 l 1,0,-1
0 0 m 1,8,-1
 0 448 l 1,9,-1
 320 448 l 1,10,-1
 320 384 l 1,11,-1
 384 384 l 1,12,-1
 384 320 l 1,13,-1
 448 320 l 1,14,-1
 448 128 l 1,15,-1
 384 128 l 1,16,-1
 384 64 l 1,17,-1
 320 64 l 1,18,-1
 320 0 l 1,19,-1
 0 0 l 1,8,-1
EndSplineSet
EndChar

StartChar: E
Encoding: 69 69 40
Width: 401
Flags: W
LayerCount: 2
Fore
SplineSet
0 0 m 1,0,-1
 0 448 l 1,1,-1
 352 448 l 1,2,-1
 352 384 l 1,3,-1
 128 384 l 1,4,-1
 128 256 l 1,5,-1
 288 256 l 1,6,-1
 288 192 l 1,7,-1
 128 192 l 1,8,-1
 128 64 l 1,9,-1
 352 64 l 1,10,-1
 352 0 l 1,11,-1
 0 0 l 1,0,-1
EndSplineSet
EndChar

StartChar: F
Encoding: 70 70 41
Width: 401
Flags: W
LayerCount: 2
Fore
SplineSet
0 0 m 1,0,-1
 0 448 l 1,1,-1
 352 448 l 1,2,-1
 352 384 l 1,3,-1
 128 384 l 1,4,-1
 128 256 l 1,5,-1
 288 256 l 1,6,-1
 288 192 l 1,7,-1
 128 192 l 1,8,-1
 128 0 l 1,9,-1
 0 0 l 1,0,-1
EndSplineSet
EndChar

StartChar: G
Encoding: 71 71 42
Width: 465
Flags: W
LayerCount: 2
Fore
SplineSet
128 0 m 1,0,-1
 128 64 l 1,1,-1
 64 64 l 1,2,-1
 64 128 l 1,3,-1
 0 128 l 1,4,-1
 0 320 l 1,5,-1
 64 320 l 1,6,-1
 64 384 l 1,7,-1
 128 384 l 1,8,-1
 128 448 l 1,9,-1
 416 448 l 1,10,-1
 416 384 l 1,11,-1
 192 384 l 1,12,-1
 192 320 l 1,13,-1
 128 320 l 1,14,-1
 128 128 l 1,15,-1
 192 128 l 1,16,-1
 192 64 l 1,17,-1
 320 64 l 1,18,-1
 320 192 l 1,19,-1
 256 192 l 1,20,-1
 256 256 l 1,21,-1
 416 256 l 1,22,-1
 416 0 l 1,23,-1
 128 0 l 1,0,-1
EndSplineSet
EndChar

StartChar: H
Encoding: 72 72 43
Width: 433
Flags: W
LayerCount: 2
Fore
SplineSet
0 0 m 1,0,-1
 0 448 l 1,1,-1
 128 448 l 1,2,-1
 128 256 l 1,3,-1
 256 256 l 1,4,-1
 256 448 l 1,5,-1
 384 448 l 1,6,-1
 384 0 l 1,7,-1
 256 0 l 1,8,-1
 256 192 l 1,9,-1
 128 192 l 1,10,-1
 128 0 l 1,11,-1
 0 0 l 1,0,-1
EndSplineSet
EndChar

StartChar: I
Encoding: 73 73 44
Width: 433
Flags: W
LayerCount: 2
Fore
SplineSet
0 0 m 1,0,-1
 0 64 l 1,1,-1
 128 64 l 1,2,-1
 128 384 l 1,3,-1
 0 384 l 1,4,-1
 0 448 l 1,5,-1
 384 448 l 1,6,-1
 384 384 l 1,7,-1
 256 384 l 1,8,-1
 256 64 l 1,9,-1
 384 64 l 1,10,-1
 384 0 l 1,11,-1
 0 0 l 1,0,-1
EndSplineSet
EndChar

StartChar: J
Encoding: 74 74 45
Width: 433
Flags: W
LayerCount: 2
Fore
SplineSet
64 0 m 1,0,-1
 64 64 l 1,1,-1
 0 64 l 1,2,-1
 0 192 l 1,3,-1
 128 192 l 1,4,-1
 128 64 l 1,5,-1
 256 64 l 1,6,-1
 256 384 l 1,7,-1
 128 384 l 1,8,-1
 128 448 l 1,9,-1
 384 448 l 1,10,-1
 384 64 l 1,11,-1
 320 64 l 1,12,-1
 320 0 l 1,13,-1
 64 0 l 1,0,-1
EndSplineSet
EndChar

StartChar: K
Encoding: 75 75 46
Width: 433
Flags: W
LayerCount: 2
Fore
SplineSet
0 0 m 1,0,-1
 0 448 l 1,1,-1
 128 448 l 1,2,-1
 128 320 l 1,3,-1
 192 320 l 1,4,-1
 192 384 l 1,5,-1
 256 384 l 1,6,-1
 256 448 l 1,7,-1
 384 448 l 1,8,-1
 384 384 l 1,9,-1
 320 384 l 1,10,-1
 320 320 l 1,11,-1
 256 320 l 1,12,-1
 256 256 l 1,13,-1
 192 256 l 1,14,-1
 192 192 l 1,15,-1
 256 192 l 1,16,-1
 256 128 l 1,17,-1
 320 128 l 1,18,-1
 320 64 l 1,19,-1
 384 64 l 1,20,-1
 384 0 l 1,21,-1
 224 0 l 1,22,-1
 224 32 l 1,23,-1
 192 32 l 1,24,-1
 192 96 l 1,25,-1
 160 96 l 1,26,-1
 160 128 l 1,27,-1
 128 128 l 1,28,-1
 128 0 l 1,29,-1
 0 0 l 1,0,-1
EndSplineSet
EndChar

StartChar: L
Encoding: 76 76 47
Width: 401
Flags: W
LayerCount: 2
Fore
SplineSet
0 0 m 1,0,-1
 0 448 l 1,1,-1
 128 448 l 1,2,-1
 128 64 l 1,3,-1
 352 64 l 1,4,-1
 352 0 l 1,5,-1
 0 0 l 1,0,-1
EndSplineSet
EndChar

StartChar: M
Encoding: 77 77 48
Width: 497
Flags: W
LayerCount: 2
Fore
SplineSet
0 0 m 1,0,-1
 0 448 l 1,1,-1
 128 448 l 1,2,-1
 128 384 l 1,3,-1
 192 384 l 1,4,-1
 192 320 l 1,5,-1
 256 320 l 1,6,-1
 256 384 l 1,7,-1
 320 384 l 1,8,-1
 320 448 l 1,9,-1
 448 448 l 1,10,-1
 448 0 l 1,11,-1
 320 0 l 1,12,-1
 320 192 l 1,13,-1
 256 192 l 1,14,-1
 256 128 l 1,15,-1
 192 128 l 1,16,-1
 192 192 l 1,17,-1
 128 192 l 1,18,-1
 128 0 l 1,19,-1
 0 0 l 1,0,-1
EndSplineSet
EndChar

StartChar: N
Encoding: 78 78 49
Width: 497
Flags: W
LayerCount: 2
Fore
SplineSet
0 0 m 1,0,-1
 0 448 l 1,1,-1
 128 448 l 1,2,-1
 128 384 l 1,3,-1
 192 384 l 1,4,-1
 192 320 l 1,5,-1
 256 320 l 1,6,-1
 256 256 l 1,7,-1
 320 256 l 1,8,-1
 320 448 l 1,9,-1
 448 448 l 1,10,-1
 448 0 l 1,11,-1
 320 0 l 1,12,-1
 320 64 l 1,13,-1
 256 64 l 1,14,-1
 256 128 l 1,15,-1
 192 128 l 1,16,-1
 192 192 l 1,17,-1
 128 192 l 1,18,-1
 128 0 l 1,19,-1
 0 0 l 1,0,-1
EndSplineSet
EndChar

StartChar: O
Encoding: 79 79 50
Width: 497
Flags: W
LayerCount: 2
Fore
SplineSet
320 64 m 1,0,-1
 320 384 l 1,1,-1
 128 384 l 1,2,-1
 128 64 l 1,3,-1
 320 64 l 1,0,-1
64 0 m 1,4,-1
 64 64 l 1,5,-1
 0 64 l 1,6,-1
 0 384 l 1,7,-1
 64 384 l 1,8,-1
 64 448 l 1,9,-1
 384 448 l 1,10,-1
 384 384 l 1,11,-1
 448 384 l 1,12,-1
 448 64 l 1,13,-1
 384 64 l 1,14,-1
 384 0 l 1,15,-1
 64 0 l 1,4,-1
EndSplineSet
EndChar

StartChar: P
Encoding: 80 80 51
Width: 465
Flags: W
LayerCount: 2
Fore
SplineSet
288 192 m 1,0,-1
 288 384 l 1,1,-1
 128 384 l 1,2,-1
 128 192 l 1,3,-1
 288 192 l 1,0,-1
0 0 m 1,4,-1
 0 448 l 1,5,-1
 352 448 l 1,6,-1
 352 384 l 1,7,-1
 416 384 l 1,8,-1
 416 192 l 1,9,-1
 352 192 l 1,10,-1
 352 128 l 1,11,-1
 128 128 l 1,12,-1
 128 0 l 1,13,-1
 0 0 l 1,4,-1
EndSplineSet
EndChar

StartChar: Q
Encoding: 81 81 52
Width: 497
Flags: W
LayerCount: 2
Fore
SplineSet
384 0 m 1,0,-1
 384 64 l 1,1,-1
 448 64 l 1,2,-1
 448 0 l 1,3,-1
 384 0 l 1,0,-1
256 64 m 1,4,-1
 256 128 l 1,5,-1
 192 128 l 1,6,-1
 192 192 l 1,7,-1
 320 192 l 1,8,-1
 320 384 l 1,9,-1
 128 384 l 1,10,-1
 128 64 l 1,11,-1
 256 64 l 1,4,-1
64 0 m 1,12,-1
 64 64 l 1,13,-1
 0 64 l 1,14,-1
 0 384 l 1,15,-1
 64 384 l 1,16,-1
 64 448 l 1,17,-1
 384 448 l 1,18,-1
 384 384 l 1,19,-1
 448 384 l 1,20,-1
 448 128 l 1,21,-1
 384 128 l 1,22,-1
 384 64 l 1,23,-1
 320 64 l 1,24,-1
 320 0 l 1,25,-1
 64 0 l 1,12,-1
EndSplineSet
EndChar

StartChar: R
Encoding: 82 82 53
Width: 497
Flags: W
LayerCount: 2
Fore
SplineSet
0 0 m 1,0,-1
 0 448 l 1,1,-1
 384 448 l 1,2,-1
 384 384 l 1,3,-1
 448 384 l 1,4,-1
 448 192 l 1,5,-1
 320 192 l 1,6,-1
 320 384 l 1,7,-1
 128 384 l 1,8,-1
 128 192 l 1,9,-1
 320 192 l 1,10,-1
 320 128 l 1,11,-1
 384 128 l 1,12,-1
 384 64 l 1,13,-1
 448 64 l 1,14,-1
 448 0 l 1,15,-1
 256 0 l 1,16,-1
 256 64 l 1,17,-1
 192 64 l 1,18,-1
 192 128 l 1,19,-1
 128 128 l 1,20,-1
 128 0 l 1,21,-1
 0 0 l 1,0,-1
EndSplineSet
EndChar

StartChar: S
Encoding: 83 83 54
Width: 497
Flags: W
LayerCount: 2
Fore
SplineSet
64 0 m 1,0,-1
 64 64 l 1,1,-1
 0 64 l 1,2,-1
 0 128 l 1,3,-1
 128 128 l 1,4,-1
 128 64 l 1,5,-1
 320 64 l 1,6,-1
 320 192 l 1,7,-1
 64 192 l 1,8,-1
 64 256 l 1,9,-1
 0 256 l 1,10,-1
 0 384 l 1,11,-1
 64 384 l 1,12,-1
 64 448 l 1,13,-1
 320 448 l 1,14,-1
 320 384 l 1,15,-1
 384 384 l 1,16,-1
 384 320 l 1,17,-1
 256 320 l 1,18,-1
 256 384 l 1,19,-1
 128 384 l 1,20,-1
 128 256 l 1,21,-1
 384 256 l 1,22,-1
 384 192 l 1,23,-1
 448 192 l 1,24,-1
 448 64 l 1,25,-1
 384 64 l 1,26,-1
 384 0 l 1,27,-1
 64 0 l 1,0,-1
EndSplineSet
EndChar

StartChar: T
Encoding: 84 84 55
Width: 433
Flags: W
LayerCount: 2
Fore
SplineSet
128 0 m 1,0,-1
 128 384 l 1,1,-1
 0 384 l 1,2,-1
 0 448 l 1,3,-1
 384 448 l 1,4,-1
 384 384 l 1,5,-1
 256 384 l 1,6,-1
 256 0 l 1,7,-1
 128 0 l 1,0,-1
EndSplineSet
EndChar

StartChar: U
Encoding: 85 85 56
Width: 433
Flags: W
LayerCount: 2
Fore
SplineSet
64 0 m 1,0,-1
 64 64 l 1,1,-1
 0 64 l 1,2,-1
 0 448 l 1,3,-1
 128 448 l 1,4,-1
 128 64 l 1,5,-1
 256 64 l 1,6,-1
 256 448 l 1,7,-1
 384 448 l 1,8,-1
 384 64 l 1,9,-1
 320 64 l 1,10,-1
 320 0 l 1,11,-1
 64 0 l 1,0,-1
EndSplineSet
EndChar

StartChar: V
Encoding: 86 86 57
Width: 497
Flags: W
LayerCount: 2
Fore
SplineSet
192 0 m 1,0,-1
 192 64 l 1,1,-1
 128 64 l 1,2,-1
 128 128 l 1,3,-1
 64 128 l 1,4,-1
 64 192 l 1,5,-1
 0 192 l 1,6,-1
 0 448 l 1,7,-1
 128 448 l 1,8,-1
 128 256 l 1,9,-1
 192 256 l 1,10,-1
 192 192 l 1,11,-1
 256 192 l 1,12,-1
 256 256 l 1,13,-1
 320 256 l 1,14,-1
 320 448 l 1,15,-1
 448 448 l 1,16,-1
 448 192 l 1,17,-1
 384 192 l 1,18,-1
 384 128 l 1,19,-1
 320 128 l 1,20,-1
 320 64 l 1,21,-1
 256 64 l 1,22,-1
 256 0 l 1,23,-1
 192 0 l 1,0,-1
EndSplineSet
EndChar

StartChar: W
Encoding: 87 87 58
Width: 497
Flags: W
LayerCount: 2
Fore
SplineSet
0 0 m 1,0,-1
 0 448 l 1,1,-1
 128 448 l 1,2,-1
 128 256 l 1,3,-1
 192 256 l 1,4,-1
 192 320 l 1,5,-1
 256 320 l 1,6,-1
 256 256 l 1,7,-1
 320 256 l 1,8,-1
 320 448 l 1,9,-1
 448 448 l 1,10,-1
 448 0 l 1,11,-1
 320 0 l 1,12,-1
 320 64 l 1,13,-1
 256 64 l 1,14,-1
 256 96 l 1,15,-1
 192 96 l 1,16,-1
 192 64 l 1,17,-1
 128 64 l 1,18,-1
 128 0 l 1,19,-1
 0 0 l 1,0,-1
EndSplineSet
EndChar

StartChar: X
Encoding: 88 88 59
Width: 497
Flags: W
LayerCount: 2
Fore
SplineSet
0 0 m 1,0,-1
 0 128 l 1,1,-1
 64 128 l 1,2,-1
 64 192 l 1,3,-1
 128 192 l 1,4,-1
 128 256 l 1,5,-1
 64 256 l 1,6,-1
 64 320 l 1,7,-1
 0 320 l 1,8,-1
 0 448 l 1,9,-1
 128 448 l 1,10,-1
 128 384 l 1,11,-1
 192 384 l 1,12,-1
 192 320 l 1,13,-1
 256 320 l 1,14,-1
 256 384 l 1,15,-1
 320 384 l 1,16,-1
 320 448 l 1,17,-1
 448 448 l 1,18,-1
 448 320 l 1,19,-1
 384 320 l 1,20,-1
 384 256 l 1,21,-1
 320 256 l 1,22,-1
 320 192 l 1,23,-1
 384 192 l 1,24,-1
 384 128 l 1,25,-1
 448 128 l 1,26,-1
 448 0 l 1,27,-1
 320 0 l 1,28,-1
 320 64 l 1,29,-1
 256 64 l 1,30,-1
 256 128 l 1,31,-1
 192 128 l 1,32,-1
 192 64 l 1,33,-1
 128 64 l 1,34,-1
 128 0 l 1,35,-1
 0 0 l 1,0,-1
EndSplineSet
EndChar

StartChar: Y
Encoding: 89 89 60
Width: 433
Flags: W
LayerCount: 2
Fore
SplineSet
128 0 m 1,0,-1
 128 192 l 1,1,-1
 64 192 l 1,2,-1
 64 256 l 1,3,-1
 0 256 l 1,4,-1
 0 448 l 1,5,-1
 128 448 l 1,6,-1
 128 256 l 1,7,-1
 256 256 l 1,8,-1
 256 448 l 1,9,-1
 384 448 l 1,10,-1
 384 256 l 1,11,-1
 320 256 l 1,12,-1
 320 192 l 1,13,-1
 256 192 l 1,14,-1
 256 0 l 1,15,-1
 128 0 l 1,0,-1
EndSplineSet
EndChar

StartChar: Z
Encoding: 90 90 61
Width: 497
Flags: W
LayerCount: 2
Fore
SplineSet
0 0 m 1,0,-1
 0 128 l 1,1,-1
 64 128 l 1,2,-1
 64 192 l 1,3,-1
 128 192 l 1,4,-1
 128 256 l 1,5,-1
 192 256 l 1,6,-1
 192 320 l 1,7,-1
 256 320 l 1,8,-1
 256 384 l 1,9,-1
 0 384 l 1,10,-1
 0 448 l 1,11,-1
 448 448 l 1,12,-1
 448 320 l 1,13,-1
 384 320 l 1,14,-1
 384 256 l 1,15,-1
 320 256 l 1,16,-1
 320 192 l 1,17,-1
 256 192 l 1,18,-1
 256 128 l 1,19,-1
 192 128 l 1,20,-1
 192 64 l 1,21,-1
 448 64 l 1,22,-1
 448 0 l 1,23,-1
 0 0 l 1,0,-1
EndSplineSet
EndChar

StartChar: bracketleft
Encoding: 91 91 62
Width: 241
Flags: W
LayerCount: 2
Fore
SplineSet
0 0 m 1,0,-1
 0 448 l 1,1,-1
 192 448 l 1,2,-1
 192 384 l 1,3,-1
 64 384 l 1,4,-1
 64 64 l 1,5,-1
 192 64 l 1,6,-1
 192 0 l 1,7,-1
 0 0 l 1,0,-1
EndSplineSet
EndChar

StartChar: backslash
Encoding: 92 92 63
Width: 305
Flags: W
LayerCount: 2
Fore
SplineSet
192 0 m 1,0,-1
 192 64 l 1,1,-1
 160 64 l 1,2,-1
 160 128 l 1,3,-1
 128 128 l 1,4,-1
 128 192 l 1,5,-1
 96 192 l 1,6,-1
 96 256 l 1,7,-1
 64 256 l 1,8,-1
 64 320 l 1,9,-1
 32 320 l 1,10,-1
 32 384 l 1,11,-1
 0 384 l 1,12,-1
 0 448 l 1,13,-1
 64 448 l 1,14,-1
 64 384 l 1,15,-1
 96 384 l 1,16,-1
 96 320 l 1,17,-1
 128 320 l 1,18,-1
 128 256 l 1,19,-1
 160 256 l 1,20,-1
 160 192 l 1,21,-1
 192 192 l 1,22,-1
 192 128 l 1,23,-1
 224 128 l 1,24,-1
 224 64 l 1,25,-1
 256 64 l 1,26,-1
 256 0 l 1,27,-1
 192 0 l 1,0,-1
EndSplineSet
EndChar

StartChar: bracketright
Encoding: 93 93 64
Width: 241
Flags: W
LayerCount: 2
Fore
SplineSet
0 0 m 1,0,-1
 0 64 l 1,1,-1
 128 64 l 1,2,-1
 128 384 l 1,3,-1
 0 384 l 1,4,-1
 0 448 l 1,5,-1
 192 448 l 1,6,-1
 192 0 l 1,7,-1
 0 0 l 1,0,-1
EndSplineSet
EndChar

StartChar: asciicircum
Encoding: 94 94 65
Width: 273
Flags: W
LayerCount: 2
Fore
SplineSet
0 288 m 1,0,-1
 0 352 l 1,1,-1
 32 352 l 1,2,-1
 32 416 l 1,3,-1
 64 416 l 1,4,-1
 64 448 l 1,5,-1
 96 448 l 1,6,-1
 96 480 l 1,7,-1
 128 480 l 1,8,-1
 128 448 l 1,9,-1
 160 448 l 1,10,-1
 160 416 l 1,11,-1
 192 416 l 1,12,-1
 192 352 l 1,13,-1
 224 352 l 1,14,-1
 224 288 l 1,15,-1
 160 288 l 1,16,-1
 160 352 l 1,17,-1
 128 352 l 1,18,-1
 128 416 l 1,19,-1
 96 416 l 1,20,-1
 96 352 l 1,21,-1
 64 352 l 1,22,-1
 64 288 l 1,23,-1
 0 288 l 1,0,-1
EndSplineSet
EndChar

StartChar: underscore
Encoding: 95 95 66
Width: 369
Flags: W
LayerCount: 2
Fore
SplineSet
0 0 m 1,0,-1
 0 64 l 1,1,-1
 320 64 l 1,2,-1
 320 0 l 1,3,-1
 0 0 l 1,0,-1
EndSplineSet
EndChar

StartChar: grave
Encoding: 96 96 67
Width: 145
Flags: W
LayerCount: 2
Fore
SplineSet
32 320 m 1,0,-1
 32 384 l 1,1,-1
 0 384 l 1,2,-1
 0 448 l 1,3,-1
 64 448 l 1,4,-1
 64 384 l 1,5,-1
 96 384 l 1,6,-1
 96 320 l 1,7,-1
 32 320 l 1,0,-1
EndSplineSet
EndChar

StartChar: a
Encoding: 97 97 68
Width: 433
Flags: W
LayerCount: 2
Fore
SplineSet
256 64 m 1,0,-1
 256 256 l 1,1,-1
 128 256 l 1,2,-1
 128 64 l 1,3,-1
 256 64 l 1,0,-1
64 0 m 1,4,-1
 64 64 l 1,5,-1
 0 64 l 1,6,-1
 0 256 l 1,7,-1
 64 256 l 1,8,-1
 64 320 l 1,9,-1
 384 320 l 1,10,-1
 384 0 l 1,11,-1
 64 0 l 1,4,-1
EndSplineSet
EndChar

StartChar: b
Encoding: 98 98 69
Width: 433
Flags: W
LayerCount: 2
Fore
SplineSet
256 64 m 1,0,-1
 256 256 l 1,1,-1
 128 256 l 1,2,-1
 128 64 l 1,3,-1
 256 64 l 1,0,-1
0 0 m 1,4,-1
 0 448 l 1,5,-1
 128 448 l 1,6,-1
 128 320 l 1,7,-1
 320 320 l 1,8,-1
 320 256 l 1,9,-1
 384 256 l 1,10,-1
 384 64 l 1,11,-1
 320 64 l 1,12,-1
 320 0 l 1,13,-1
 0 0 l 1,4,-1
EndSplineSet
EndChar

StartChar: c
Encoding: 99 99 70
Width: 433
Flags: W
LayerCount: 2
Fore
SplineSet
64 0 m 1,0,-1
 64 64 l 1,1,-1
 0 64 l 1,2,-1
 0 256 l 1,3,-1
 64 256 l 1,4,-1
 64 320 l 1,5,-1
 320 320 l 1,6,-1
 320 256 l 1,7,-1
 384 256 l 1,8,-1
 384 192 l 1,9,-1
 256 192 l 1,10,-1
 256 256 l 1,11,-1
 128 256 l 1,12,-1
 128 64 l 1,13,-1
 256 64 l 1,14,-1
 256 128 l 1,15,-1
 384 128 l 1,16,-1
 384 64 l 1,17,-1
 320 64 l 1,18,-1
 320 0 l 1,19,-1
 64 0 l 1,0,-1
EndSplineSet
EndChar

StartChar: d
Encoding: 100 100 71
Width: 433
Flags: W
LayerCount: 2
Fore
SplineSet
256 64 m 1,0,-1
 256 256 l 1,1,-1
 128 256 l 1,2,-1
 128 64 l 1,3,-1
 256 64 l 1,0,-1
64 0 m 1,4,-1
 64 64 l 1,5,-1
 0 64 l 1,6,-1
 0 256 l 1,7,-1
 64 256 l 1,8,-1
 64 320 l 1,9,-1
 256 320 l 1,10,-1
 256 448 l 1,11,-1
 384 448 l 1,12,-1
 384 0 l 1,13,-1
 64 0 l 1,4,-1
EndSplineSet
EndChar

StartChar: e
Encoding: 101 101 72
Width: 433
Flags: W
LayerCount: 2
Fore
SplineSet
256 192 m 1,0,-1
 256 256 l 1,1,-1
 128 256 l 1,2,-1
 128 192 l 1,3,-1
 256 192 l 1,0,-1
64 0 m 1,4,-1
 64 64 l 1,5,-1
 0 64 l 1,6,-1
 0 256 l 1,7,-1
 64 256 l 1,8,-1
 64 320 l 1,9,-1
 320 320 l 1,10,-1
 320 256 l 1,11,-1
 384 256 l 1,12,-1
 384 128 l 1,13,-1
 128 128 l 1,14,-1
 128 64 l 1,15,-1
 352 64 l 1,16,-1
 352 0 l 1,17,-1
 64 0 l 1,4,-1
EndSplineSet
EndChar

StartChar: f
Encoding: 102 102 73
Width: 369
Flags: W
LayerCount: 2
Fore
SplineSet
64 0 m 1,0,-1
 64 192 l 1,1,-1
 0 192 l 1,2,-1
 0 256 l 1,3,-1
 64 256 l 1,4,-1
 64 384 l 1,5,-1
 128 384 l 1,6,-1
 128 448 l 1,7,-1
 320 448 l 1,8,-1
 320 320 l 1,9,-1
 256 320 l 1,10,-1
 256 384 l 1,11,-1
 192 384 l 1,12,-1
 192 256 l 1,13,-1
 320 256 l 1,14,-1
 320 192 l 1,15,-1
 192 192 l 1,16,-1
 192 0 l 1,17,-1
 64 0 l 1,0,-1
EndSplineSet
EndChar

StartChar: g
Encoding: 103 103 74
Width: 433
Flags: W
LayerCount: 2
Fore
SplineSet
256 96 m 1,0,-1
 256 256 l 1,1,-1
 128 256 l 1,2,-1
 128 96 l 1,3,-1
 256 96 l 1,0,-1
64 -128 m 1,4,-1
 64 -64 l 1,5,-1
 256 -64 l 1,6,-1
 256 32 l 1,7,-1
 64 32 l 1,8,-1
 64 96 l 1,9,-1
 0 96 l 1,10,-1
 0 256 l 1,11,-1
 64 256 l 1,12,-1
 64 320 l 1,13,-1
 384 320 l 1,14,-1
 384 -64 l 1,15,-1
 320 -64 l 1,16,-1
 320 -128 l 1,17,-1
 64 -128 l 1,4,-1
EndSplineSet
EndChar

StartChar: h
Encoding: 104 104 75
Width: 433
Flags: W
LayerCount: 2
Fore
SplineSet
0 0 m 1,0,-1
 0 448 l 1,1,-1
 128 448 l 1,2,-1
 128 320 l 1,3,-1
 320 320 l 1,4,-1
 320 256 l 1,5,-1
 384 256 l 1,6,-1
 384 0 l 1,7,-1
 256 0 l 1,8,-1
 256 256 l 1,9,-1
 128 256 l 1,10,-1
 128 0 l 1,11,-1
 0 0 l 1,0,-1
EndSplineSet
EndChar

StartChar: i
Encoding: 105 105 76
Width: 177
Flags: W
LayerCount: 2
Fore
SplineSet
0 0 m 1,0,-1
 0 288 l 1,1,-1
 128 288 l 1,2,-1
 128 0 l 1,3,-1
 0 0 l 1,0,-1
0 352 m 5,4,-1
 0 448 l 5,5,-1
 128 448 l 5,6,-1
 128 352 l 5,7,-1
 0 352 l 5,4,-1
EndSplineSet
EndChar

StartChar: j
Encoding: 106 106 77
Width: 241
Flags: W
LayerCount: 2
Fore
SplineSet
0 -128 m 1,0,-1
 0 -64 l 1,1,-1
 64 -64 l 1,2,-1
 64 256 l 1,3,-1
 192 256 l 1,4,-1
 192 -64 l 1,5,-1
 128 -64 l 1,6,-1
 128 -128 l 1,7,-1
 0 -128 l 1,0,-1
64 320 m 1,8,-1
 64 416 l 1,9,-1
 192 416 l 1,10,-1
 192 320 l 1,11,-1
 64 320 l 1,8,-1
EndSplineSet
EndChar

StartChar: k
Encoding: 107 107 78
Width: 433
Flags: W
LayerCount: 2
Fore
SplineSet
0 0 m 1,0,-1
 0 448 l 1,1,-1
 128 448 l 1,2,-1
 128 192 l 1,3,-1
 192 192 l 1,4,-1
 192 256 l 1,5,-1
 256 256 l 1,6,-1
 256 320 l 1,7,-1
 384 320 l 1,8,-1
 384 256 l 1,9,-1
 320 256 l 1,10,-1
 320 192 l 1,11,-1
 256 192 l 1,12,-1
 256 128 l 1,13,-1
 320 128 l 1,14,-1
 320 64 l 1,15,-1
 384 64 l 1,16,-1
 384 0 l 1,17,-1
 256 0 l 1,18,-1
 256 64 l 1,19,-1
 192 64 l 1,20,-1
 192 128 l 1,21,-1
 128 128 l 1,22,-1
 128 0 l 1,23,-1
 0 0 l 1,0,-1
EndSplineSet
EndChar

StartChar: l
Encoding: 108 108 79
Width: 177
Flags: W
LayerCount: 2
Fore
SplineSet
0 0 m 1,0,-1
 0 448 l 1,1,-1
 128 448 l 1,2,-1
 128 0 l 1,3,-1
 0 0 l 1,0,-1
EndSplineSet
EndChar

StartChar: m
Encoding: 109 109 80
Width: 497
Flags: W
LayerCount: 2
Fore
SplineSet
0 0 m 1,0,-1
 0 320 l 1,1,-1
 192 320 l 1,2,-1
 192 256 l 1,3,-1
 256 256 l 1,4,-1
 256 320 l 1,5,-1
 384 320 l 1,6,-1
 384 256 l 1,7,-1
 448 256 l 1,8,-1
 448 0 l 1,9,-1
 320 0 l 1,10,-1
 320 192 l 1,11,-1
 256 192 l 1,12,-1
 256 128 l 1,13,-1
 192 128 l 1,14,-1
 192 192 l 1,15,-1
 128 192 l 1,16,-1
 128 0 l 1,17,-1
 0 0 l 1,0,-1
EndSplineSet
EndChar

StartChar: n
Encoding: 110 110 81
Width: 433
Flags: W
LayerCount: 2
Fore
SplineSet
0 0 m 1,0,-1
 0 320 l 1,1,-1
 320 320 l 1,2,-1
 320 256 l 1,3,-1
 384 256 l 1,4,-1
 384 0 l 1,5,-1
 256 0 l 1,6,-1
 256 256 l 1,7,-1
 128 256 l 1,8,-1
 128 0 l 1,9,-1
 0 0 l 1,0,-1
EndSplineSet
EndChar

StartChar: o
Encoding: 111 111 82
Width: 433
Flags: W
LayerCount: 2
Fore
SplineSet
256 64 m 1,0,-1
 256 256 l 1,1,-1
 128 256 l 1,2,-1
 128 64 l 1,3,-1
 256 64 l 1,0,-1
64 0 m 1,4,-1
 64 64 l 1,5,-1
 0 64 l 1,6,-1
 0 256 l 1,7,-1
 64 256 l 1,8,-1
 64 320 l 1,9,-1
 320 320 l 1,10,-1
 320 256 l 1,11,-1
 384 256 l 1,12,-1
 384 64 l 1,13,-1
 320 64 l 1,14,-1
 320 0 l 1,15,-1
 64 0 l 1,4,-1
EndSplineSet
EndChar

StartChar: p
Encoding: 112 112 83
Width: 433
Flags: W
LayerCount: 2
Fore
SplineSet
256 64 m 1,0,-1
 256 256 l 1,1,-1
 128 256 l 1,2,-1
 128 64 l 1,3,-1
 256 64 l 1,0,-1
0 -128 m 1,4,-1
 0 320 l 1,5,-1
 320 320 l 1,6,-1
 320 256 l 1,7,-1
 384 256 l 1,8,-1
 384 64 l 1,9,-1
 320 64 l 1,10,-1
 320 0 l 1,11,-1
 128 0 l 1,12,-1
 128 -128 l 1,13,-1
 0 -128 l 1,4,-1
EndSplineSet
EndChar

StartChar: q
Encoding: 113 113 84
Width: 433
Flags: W
LayerCount: 2
Fore
SplineSet
256 64 m 1,0,-1
 256 256 l 1,1,-1
 128 256 l 1,2,-1
 128 64 l 1,3,-1
 256 64 l 1,0,-1
256 -128 m 1,4,-1
 256 0 l 1,5,-1
 64 0 l 1,6,-1
 64 64 l 1,7,-1
 0 64 l 1,8,-1
 0 256 l 1,9,-1
 64 256 l 1,10,-1
 64 320 l 1,11,-1
 384 320 l 1,12,-1
 384 -128 l 1,13,-1
 256 -128 l 1,4,-1
EndSplineSet
EndChar

StartChar: r
Encoding: 114 114 85
Width: 369
Flags: W
LayerCount: 2
Fore
SplineSet
0 0 m 1,0,-1
 0 320 l 1,1,-1
 256 320 l 1,2,-1
 256 256 l 1,3,-1
 320 256 l 1,4,-1
 320 192 l 1,5,-1
 192 192 l 1,6,-1
 192 256 l 1,7,-1
 128 256 l 1,8,-1
 128 0 l 1,9,-1
 0 0 l 1,0,-1
EndSplineSet
EndChar

StartChar: s
Encoding: 115 115 86
Width: 433
Flags: W
LayerCount: 2
Fore
SplineSet
0 0 m 1,0,-1
 0 64 l 1,1,-1
 192 64 l 1,2,-1
 192 128 l 1,3,-1
 64 128 l 1,4,-1
 64 192 l 1,5,-1
 0 192 l 1,6,-1
 0 256 l 1,7,-1
 64 256 l 1,8,-1
 64 320 l 1,9,-1
 320 320 l 1,10,-1
 320 256 l 1,11,-1
 192 256 l 1,12,-1
 192 192 l 1,13,-1
 320 192 l 1,14,-1
 320 128 l 1,15,-1
 384 128 l 1,16,-1
 384 64 l 1,17,-1
 320 64 l 1,18,-1
 320 0 l 1,19,-1
 0 0 l 1,0,-1
EndSplineSet
EndChar

StartChar: t
Encoding: 116 116 87
Width: 305
Flags: W
LayerCount: 2
Fore
SplineSet
64 0 m 1,0,-1
 64 320 l 1,1,-1
 0 320 l 1,2,-1
 0 384 l 1,3,-1
 64 384 l 1,4,-1
 64 448 l 1,5,-1
 192 448 l 1,6,-1
 192 384 l 1,7,-1
 256 384 l 1,8,-1
 256 320 l 1,9,-1
 192 320 l 1,10,-1
 192 0 l 1,11,-1
 64 0 l 1,0,-1
EndSplineSet
EndChar

StartChar: u
Encoding: 117 117 88
Width: 433
Flags: W
LayerCount: 2
Fore
SplineSet
64 0 m 1,0,-1
 64 64 l 1,1,-1
 0 64 l 1,2,-1
 0 320 l 1,3,-1
 128 320 l 1,4,-1
 128 64 l 1,5,-1
 256 64 l 1,6,-1
 256 320 l 1,7,-1
 384 320 l 1,8,-1
 384 0 l 1,9,-1
 64 0 l 1,0,-1
EndSplineSet
EndChar

StartChar: v
Encoding: 118 118 89
Width: 369
Flags: W
LayerCount: 2
Fore
SplineSet
128 0 m 1,0,-1
 128 64 l 1,1,-1
 64 64 l 1,2,-1
 64 128 l 1,3,-1
 0 128 l 1,4,-1
 0 320 l 1,5,-1
 128 320 l 1,6,-1
 128 192 l 1,7,-1
 192 192 l 1,8,-1
 192 320 l 1,9,-1
 320 320 l 1,10,-1
 320 128 l 1,11,-1
 256 128 l 1,12,-1
 256 64 l 1,13,-1
 192 64 l 1,14,-1
 192 0 l 1,15,-1
 128 0 l 1,0,-1
EndSplineSet
EndChar

StartChar: w
Encoding: 119 119 90
Width: 497
Flags: W
LayerCount: 2
Fore
SplineSet
64 0 m 1,0,-1
 64 64 l 1,1,-1
 0 64 l 1,2,-1
 0 320 l 1,3,-1
 128 320 l 1,4,-1
 128 128 l 1,5,-1
 192 128 l 1,6,-1
 192 192 l 1,7,-1
 256 192 l 1,8,-1
 256 128 l 1,9,-1
 320 128 l 1,10,-1
 320 320 l 1,11,-1
 448 320 l 1,12,-1
 448 64 l 1,13,-1
 384 64 l 1,14,-1
 384 0 l 1,15,-1
 256 0 l 1,16,-1
 256 64 l 1,17,-1
 192 64 l 1,18,-1
 192 0 l 1,19,-1
 64 0 l 1,0,-1
EndSplineSet
EndChar

StartChar: x
Encoding: 120 120 91
Width: 497
Flags: W
LayerCount: 2
Fore
SplineSet
0 0 m 1,0,-1
 0 64 l 1,1,-1
 64 64 l 1,2,-1
 64 128 l 1,3,-1
 128 128 l 1,4,-1
 128 192 l 1,5,-1
 64 192 l 1,6,-1
 64 256 l 1,7,-1
 0 256 l 1,8,-1
 0 320 l 1,9,-1
 128 320 l 1,10,-1
 128 256 l 1,11,-1
 192 256 l 1,12,-1
 192 192 l 1,13,-1
 256 192 l 1,14,-1
 256 256 l 1,15,-1
 320 256 l 1,16,-1
 320 320 l 1,17,-1
 448 320 l 1,18,-1
 448 256 l 1,19,-1
 384 256 l 1,20,-1
 384 192 l 1,21,-1
 320 192 l 1,22,-1
 320 128 l 1,23,-1
 384 128 l 1,24,-1
 384 64 l 1,25,-1
 448 64 l 1,26,-1
 448 0 l 1,27,-1
 320 0 l 1,28,-1
 320 64 l 1,29,-1
 256 64 l 1,30,-1
 256 128 l 1,31,-1
 192 128 l 1,32,-1
 192 64 l 1,33,-1
 128 64 l 1,34,-1
 128 0 l 1,35,-1
 0 0 l 1,0,-1
EndSplineSet
EndChar

StartChar: y
Encoding: 121 121 92
Width: 433
Flags: W
LayerCount: 2
Fore
SplineSet
64 -128 m 1,0,-1
 64 -64 l 1,1,-1
 256 -64 l 1,2,-1
 256 64 l 1,3,-1
 64 64 l 1,4,-1
 64 128 l 1,5,-1
 0 128 l 1,6,-1
 0 320 l 1,7,-1
 128 320 l 1,8,-1
 128 128 l 1,9,-1
 256 128 l 1,10,-1
 256 320 l 1,11,-1
 384 320 l 1,12,-1
 384 -64 l 1,13,-1
 320 -64 l 1,14,-1
 320 -128 l 1,15,-1
 64 -128 l 1,0,-1
EndSplineSet
EndChar

StartChar: z
Encoding: 122 122 93
Width: 433
Flags: W
LayerCount: 2
Fore
SplineSet
0 0 m 1,0,-1
 0 64 l 1,1,-1
 64 64 l 1,2,-1
 64 128 l 1,3,-1
 128 128 l 1,4,-1
 128 192 l 1,5,-1
 192 192 l 1,6,-1
 192 256 l 1,7,-1
 0 256 l 1,8,-1
 0 320 l 1,9,-1
 384 320 l 1,10,-1
 384 256 l 1,11,-1
 320 256 l 1,12,-1
 320 192 l 1,13,-1
 256 192 l 1,14,-1
 256 128 l 1,15,-1
 192 128 l 1,16,-1
 192 64 l 1,17,-1
 384 64 l 1,18,-1
 384 0 l 1,19,-1
 0 0 l 1,0,-1
EndSplineSet
EndChar

StartChar: braceleft
Encoding: 123 123 94
Width: 241
Flags: W
LayerCount: 2
Fore
SplineSet
64 0 m 1,0,-1
 64 192 l 1,1,-1
 0 192 l 1,2,-1
 0 256 l 1,3,-1
 64 256 l 1,4,-1
 64 448 l 1,5,-1
 192 448 l 1,6,-1
 192 384 l 1,7,-1
 128 384 l 1,8,-1
 128 256 l 1,9,-1
 96 256 l 1,10,-1
 96 192 l 1,11,-1
 128 192 l 1,12,-1
 128 64 l 1,13,-1
 192 64 l 1,14,-1
 192 0 l 1,15,-1
 64 0 l 1,0,-1
EndSplineSet
EndChar

StartChar: bar
Encoding: 124 124 95
Width: 209
Flags: W
LayerCount: 2
Fore
SplineSet
32 0 m 1,0,-1
 32 448 l 1,1,-1
 128 448 l 1,2,-1
 128 0 l 1,3,-1
 32 0 l 1,0,-1
EndSplineSet
EndChar

StartChar: braceright
Encoding: 125 125 96
Width: 241
Flags: W
LayerCount: 2
Fore
SplineSet
0 0 m 1,0,-1
 0 64 l 1,1,-1
 64 64 l 1,2,-1
 64 192 l 1,3,-1
 96 192 l 1,4,-1
 96 256 l 1,5,-1
 64 256 l 1,6,-1
 64 384 l 1,7,-1
 0 384 l 1,8,-1
 0 448 l 1,9,-1
 128 448 l 1,10,-1
 128 256 l 1,11,-1
 192 256 l 1,12,-1
 192 192 l 1,13,-1
 128 192 l 1,14,-1
 128 0 l 1,15,-1
 0 0 l 1,0,-1
EndSplineSet
EndChar

StartChar: asciitilde
Encoding: 126 126 97
Width: 305
Flags: W
LayerCount: 2
Fore
SplineSet
0 160 m 1,0,-1
 0 224 l 1,1,-1
 64 224 l 1,2,-1
 64 160 l 1,3,-1
 0 160 l 1,0,-1
128 160 m 1,4,-1
 128 224 l 1,5,-1
 192 224 l 1,6,-1
 192 160 l 1,7,-1
 128 160 l 1,4,-1
64 224 m 1,8,-1
 64 288 l 1,9,-1
 128 288 l 1,10,-1
 128 224 l 1,11,-1
 64 224 l 1,8,-1
192 224 m 1,12,-1
 192 288 l 1,13,-1
 256 288 l 1,14,-1
 256 224 l 1,15,-1
 192 224 l 1,12,-1
EndSplineSet
EndChar

StartChar: copyright
Encoding: 169 169 98
Width: 497
Flags: W
LayerCount: 2
Fore
SplineSet
128 96 m 1,0,-1
 128 128 l 1,1,-1
 96 128 l 1,2,-1
 96 320 l 1,3,-1
 128 320 l 1,4,-1
 128 352 l 1,5,-1
 288 352 l 1,6,-1
 288 320 l 1,7,-1
 320 320 l 1,8,-1
 320 288 l 1,9,-1
 352 288 l 1,10,-1
 352 256 l 1,11,-1
 256 256 l 1,12,-1
 256 288 l 1,13,-1
 160 288 l 1,14,-1
 160 160 l 1,15,-1
 256 160 l 1,16,-1
 256 192 l 1,17,-1
 352 192 l 1,18,-1
 352 160 l 1,19,-1
 320 160 l 1,20,-1
 320 128 l 1,21,-1
 288 128 l 1,22,-1
 288 96 l 1,23,-1
 128 96 l 1,0,-1
352 64 m 1,24,-1
 352 96 l 1,25,-1
 384 96 l 1,26,-1
 384 352 l 1,27,-1
 352 352 l 1,28,-1
 352 384 l 1,29,-1
 96 384 l 1,30,-1
 96 352 l 1,31,-1
 64 352 l 1,32,-1
 64 96 l 1,33,-1
 96 96 l 1,34,-1
 96 64 l 1,35,-1
 352 64 l 1,24,-1
96 0 m 1,36,-1
 96 32 l 1,37,-1
 32 32 l 1,38,-1
 32 96 l 1,39,-1
 0 96 l 1,40,-1
 0 352 l 1,41,-1
 32 352 l 1,42,-1
 32 416 l 1,43,-1
 96 416 l 1,44,-1
 96 448 l 1,45,-1
 352 448 l 1,46,-1
 352 416 l 1,47,-1
 416 416 l 1,48,-1
 416 352 l 1,49,-1
 448 352 l 1,50,-1
 448 96 l 1,51,-1
 416 96 l 1,52,-1
 416 32 l 1,53,-1
 352 32 l 1,54,-1
 352 0 l 1,55,-1
 96 0 l 1,36,-1
EndSplineSet
EndChar

StartChar: multiply
Encoding: 215 215 99
Width: 369
Flags: W
LayerCount: 2
Fore
SplineSet
0 0 m 1,0,-1
 0 64 l 1,1,-1
 32 64 l 1,2,-1
 32 96 l 1,3,-1
 64 96 l 1,4,-1
 64 128 l 1,5,-1
 96 128 l 1,6,-1
 96 192 l 1,7,-1
 64 192 l 1,8,-1
 64 224 l 1,9,-1
 32 224 l 1,10,-1
 32 256 l 1,11,-1
 0 256 l 1,12,-1
 0 320 l 1,13,-1
 64 320 l 1,14,-1
 64 288 l 1,15,-1
 96 288 l 1,16,-1
 96 256 l 1,17,-1
 128 256 l 1,18,-1
 128 224 l 1,19,-1
 192 224 l 1,20,-1
 192 256 l 1,21,-1
 224 256 l 1,22,-1
 224 288 l 1,23,-1
 256 288 l 1,24,-1
 256 320 l 1,25,-1
 320 320 l 1,26,-1
 320 256 l 1,27,-1
 288 256 l 1,28,-1
 288 224 l 1,29,-1
 256 224 l 1,30,-1
 256 192 l 1,31,-1
 224 192 l 1,32,-1
 224 128 l 1,33,-1
 256 128 l 1,34,-1
 256 96 l 1,35,-1
 288 96 l 1,36,-1
 288 64 l 1,37,-1
 320 64 l 1,38,-1
 320 0 l 1,39,-1
 256 0 l 1,40,-1
 256 32 l 1,41,-1
 224 32 l 1,42,-1
 224 64 l 1,43,-1
 192 64 l 1,44,-1
 192 96 l 1,45,-1
 128 96 l 1,46,-1
 128 64 l 1,47,-1
 96 64 l 1,48,-1
 96 32 l 1,49,-1
 64 32 l 1,50,-1
 64 0 l 1,51,-1
 0 0 l 1,0,-1
EndSplineSet
EndChar

StartChar: divide
Encoding: 247 247 100
Width: 369
Flags: W
LayerCount: 2
Fore
SplineSet
128 64 m 1,0,-1
 128 128 l 1,1,-1
 192 128 l 1,2,-1
 192 64 l 1,3,-1
 128 64 l 1,0,-1
0 160 m 1,4,-1
 0 224 l 1,5,-1
 320 224 l 1,6,-1
 320 160 l 1,7,-1
 0 160 l 1,4,-1
128 256 m 1,8,-1
 128 320 l 1,9,-1
 192 320 l 1,10,-1
 192 256 l 1,11,-1
 128 256 l 1,8,-1
EndSplineSet
EndChar

StartChar: quoteleft
Encoding: 8216 8216 101
Width: 113
Flags: W
LayerCount: 2
Fore
SplineSet
0 352 m 1,0,-1
 0 448 l 1,1,-1
 64 448 l 1,2,-1
 64 352 l 1,3,-1
 0 352 l 1,0,-1
EndSplineSet
EndChar

StartChar: quoteright
Encoding: 8217 8217 102
Width: 113
Flags: W
LayerCount: 2
Fore
SplineSet
0 352 m 1,0,-1
 0 448 l 1,1,-1
 64 448 l 1,2,-1
 64 352 l 1,3,-1
 0 352 l 1,0,-1
EndSplineSet
EndChar

StartChar: quotedblleft
Encoding: 8220 8220 103
Width: 209
Flags: W
LayerCount: 2
Fore
SplineSet
0 352 m 1,0,-1
 0 448 l 1,1,-1
 64 448 l 1,2,-1
 64 352 l 1,3,-1
 0 352 l 1,0,-1
96 352 m 1,4,-1
 96 448 l 1,5,-1
 160 448 l 1,6,-1
 160 352 l 1,7,-1
 96 352 l 1,4,-1
EndSplineSet
EndChar

StartChar: quotedblright
Encoding: 8221 8221 104
Width: 209
Flags: W
LayerCount: 2
Fore
SplineSet
0 352 m 1,0,-1
 0 448 l 1,1,-1
 64 448 l 1,2,-1
 64 352 l 1,3,-1
 0 352 l 1,0,-1
96 352 m 1,4,-1
 96 448 l 1,5,-1
 160 448 l 1,6,-1
 160 352 l 1,7,-1
 96 352 l 1,4,-1
EndSplineSet
EndChar

StartChar: guilsinglleft
Encoding: 8249 8249 105
Width: 433
Flags: W
LayerCount: 2
Fore
SplineSet
96 0 m 1,0,-1
 96 32 l 1,1,-1
 128 32 l 1,2,-1
 128 0 l 1,3,-1
 96 0 l 1,0,-1
256 0 m 1,4,-1
 256 32 l 1,5,-1
 288 32 l 1,6,-1
 288 0 l 1,7,-1
 256 0 l 1,4,-1
32 32 m 1,8,-1
 32 64 l 1,9,-1
 64 64 l 1,10,-1
 64 32 l 1,11,-1
 32 32 l 1,8,-1
320 32 m 1,12,-1
 320 64 l 1,13,-1
 352 64 l 1,14,-1
 352 32 l 1,15,-1
 320 32 l 1,12,-1
0 64 m 1,16,-1
 0 96 l 1,17,-1
 32 96 l 1,18,-1
 32 64 l 1,19,-1
 0 64 l 1,16,-1
352 64 m 1,20,-1
 352 96 l 1,21,-1
 384 96 l 1,22,-1
 384 64 l 1,23,-1
 352 64 l 1,20,-1
64 64 m 1,24,-1
 64 128 l 1,25,-1
 96 128 l 1,26,-1
 96 64 l 1,27,-1
 64 64 l 1,24,-1
288 64 m 1,28,-1
 288 128 l 1,29,-1
 320 128 l 1,30,-1
 320 64 l 1,31,-1
 288 64 l 1,28,-1
128 32 m 1,32,-1
 128 128 l 1,33,-1
 96 128 l 1,34,-1
 96 160 l 1,35,-1
 128 160 l 1,36,-1
 128 256 l 1,37,-1
 96 256 l 1,38,-1
 96 160 l 1,39,-1
 32 160 l 1,40,-1
 32 192 l 1,41,-1
 64 192 l 1,42,-1
 64 448 l 1,43,-1
 96 448 l 1,44,-1
 96 416 l 1,45,-1
 128 416 l 1,46,-1
 128 384 l 1,47,-1
 160 384 l 1,48,-1
 160 352 l 1,49,-1
 224 352 l 1,50,-1
 224 384 l 1,51,-1
 256 384 l 1,52,-1
 256 416 l 1,53,-1
 288 416 l 1,54,-1
 288 448 l 1,55,-1
 320 448 l 1,56,-1
 320 192 l 1,57,-1
 352 192 l 1,58,-1
 352 160 l 1,59,-1
 288 160 l 1,60,-1
 288 256 l 1,61,-1
 256 256 l 1,62,-1
 256 160 l 1,63,-1
 288 160 l 1,64,-1
 288 128 l 1,65,-1
 256 128 l 1,66,-1
 256 32 l 1,67,-1
 224 32 l 1,68,-1
 224 128 l 1,69,-1
 160 128 l 1,70,-1
 160 32 l 1,71,-1
 128 32 l 1,32,-1
EndSplineSet
EndChar

StartChar: guilsinglright
Encoding: 8250 8250 106
Width: 497
Flags: W
LayerCount: 2
Fore
SplineSet
64 0 m 1,0,-1
 64 32 l 1,1,-1
 32 32 l 1,2,-1
 32 64 l 1,3,-1
 0 64 l 1,4,-1
 0 128 l 1,5,-1
 32 128 l 1,6,-1
 32 96 l 1,7,-1
 64 96 l 1,8,-1
 64 64 l 1,9,-1
 96 64 l 1,10,-1
 96 96 l 1,11,-1
 128 96 l 1,12,-1
 128 160 l 1,13,-1
 160 160 l 1,14,-1
 160 64 l 1,15,-1
 128 64 l 1,16,-1
 128 32 l 1,17,-1
 160 32 l 1,18,-1
 160 64 l 1,19,-1
 192 64 l 1,20,-1
 192 160 l 1,21,-1
 256 160 l 1,22,-1
 256 64 l 1,23,-1
 288 64 l 1,24,-1
 288 32 l 1,25,-1
 320 32 l 1,26,-1
 320 64 l 1,27,-1
 288 64 l 1,28,-1
 288 160 l 1,29,-1
 320 160 l 1,30,-1
 320 96 l 1,31,-1
 352 96 l 1,32,-1
 352 64 l 1,33,-1
 384 64 l 1,34,-1
 384 96 l 1,35,-1
 416 96 l 1,36,-1
 416 128 l 1,37,-1
 448 128 l 1,38,-1
 448 64 l 1,39,-1
 416 64 l 1,40,-1
 416 32 l 1,41,-1
 384 32 l 1,42,-1
 384 0 l 1,43,-1
 256 0 l 1,44,-1
 256 32 l 1,45,-1
 192 32 l 1,46,-1
 192 0 l 1,47,-1
 64 0 l 1,0,-1
128 192 m 1,48,-1
 128 288 l 1,49,-1
 160 288 l 1,50,-1
 160 192 l 1,51,-1
 128 192 l 1,48,-1
288 192 m 1,52,-1
 288 288 l 1,53,-1
 320 288 l 1,54,-1
 320 192 l 1,55,-1
 288 192 l 1,52,-1
192 384 m 1,56,-1
 192 416 l 1,57,-1
 256 416 l 1,58,-1
 256 384 l 1,59,-1
 192 384 l 1,56,-1
160 416 m 1,60,-1
 160 448 l 1,61,-1
 192 448 l 1,62,-1
 192 416 l 1,63,-1
 160 416 l 1,60,-1
256 416 m 1,64,-1
 256 448 l 1,65,-1
 288 448 l 1,66,-1
 288 416 l 1,67,-1
 256 416 l 1,64,-1
128 448 m 1,68,-1
 128 480 l 1,69,-1
 160 480 l 1,70,-1
 160 448 l 1,71,-1
 128 448 l 1,68,-1
288 448 m 1,72,-1
 288 480 l 1,73,-1
 320 480 l 1,74,-1
 320 448 l 1,75,-1
 288 448 l 1,72,-1
64 96 m 1,76,-1
 64 128 l 1,77,-1
 32 128 l 1,78,-1
 32 256 l 1,79,-1
 64 256 l 1,80,-1
 64 512 l 1,81,-1
 128 512 l 1,82,-1
 128 480 l 1,83,-1
 96 480 l 1,84,-1
 96 224 l 1,85,-1
 64 224 l 1,86,-1
 64 192 l 1,87,-1
 128 192 l 1,88,-1
 128 160 l 1,89,-1
 96 160 l 1,90,-1
 96 96 l 1,91,-1
 64 96 l 1,76,-1
352 96 m 1,92,-1
 352 160 l 1,93,-1
 320 160 l 1,94,-1
 320 192 l 1,95,-1
 384 192 l 1,96,-1
 384 224 l 1,97,-1
 352 224 l 1,98,-1
 352 480 l 1,99,-1
 320 480 l 1,100,-1
 320 512 l 1,101,-1
 384 512 l 1,102,-1
 384 256 l 1,103,-1
 416 256 l 1,104,-1
 416 128 l 1,105,-1
 384 128 l 1,106,-1
 384 96 l 1,107,-1
 352 96 l 1,92,-1
EndSplineSet
EndChar

StartChar: trademark
Encoding: 8482 8482 107
Width: 305
Flags: W
LayerCount: 2
Fore
SplineSet
64 320 m 1,0,-1
 64 416 l 1,1,-1
 0 416 l 1,2,-1
 0 448 l 1,3,-1
 192 448 l 1,4,-1
 192 416 l 1,5,-1
 224 416 l 1,6,-1
 224 448 l 1,7,-1
 256 448 l 1,8,-1
 256 320 l 1,9,-1
 224 320 l 1,10,-1
 224 384 l 1,11,-1
 192 384 l 1,12,-1
 192 320 l 1,13,-1
 160 320 l 1,14,-1
 160 416 l 1,15,-1
 96 416 l 1,16,-1
 96 320 l 1,17,-1
 64 320 l 1,0,-1
EndSplineSet
EndChar

StartChar: aacute
Encoding: 225 225 108
Width: 433
Flags: W
LayerCount: 2
Fore
SplineSet
192 422 m 5,0,-1
 192 468 l 5,1,-1
 255 468 l 5,2,-1
 255 422 l 5,3,-1
 192 422 l 5,0,-1
127 374 m 5,4,-1
 127 422 l 5,5,-1
 191 422 l 5,6,-1
 191 374 l 5,7,-1
 127 374 l 5,4,-1
191 422 m 1028,8,-1
191 422 m 1053,9,-1
127 374 m 1029,10,-1
256 64 m 1,11,-1
 256 256 l 1,12,-1
 128 256 l 1,13,-1
 128 64 l 1,14,-1
 256 64 l 1,11,-1
64 0 m 1,15,-1
 64 64 l 1,16,-1
 0 64 l 1,17,-1
 0 256 l 1,18,-1
 64 256 l 1,19,-1
 64 320 l 1,20,-1
 384 320 l 1,21,-1
 384 0 l 1,22,-1
 64 0 l 1,15,-1
EndSplineSet
EndChar

StartChar: eacute
Encoding: 233 233 109
Width: 433
Flags: W
LayerCount: 2
Fore
SplineSet
192 422 m 5,0,-1
 192 468 l 5,1,-1
 255 468 l 5,2,-1
 255 422 l 5,3,-1
 192 422 l 5,0,-1
127 374 m 5,4,-1
 127 422 l 5,5,-1
 191 422 l 5,6,-1
 191 374 l 5,7,-1
 127 374 l 5,4,-1
191 422 m 1028,8,-1
191 422 m 1053,9,-1
127 374 m 1029,10,-1
256 192 m 1,11,-1
 256 256 l 1,12,-1
 128 256 l 1,13,-1
 128 192 l 1,14,-1
 256 192 l 1,11,-1
64 0 m 1,15,-1
 64 64 l 1,16,-1
 0 64 l 1,17,-1
 0 256 l 1,18,-1
 64 256 l 1,19,-1
 64 320 l 1,20,-1
 320 320 l 1,21,-1
 320 256 l 1,22,-1
 384 256 l 1,23,-1
 384 128 l 1,24,-1
 128 128 l 1,25,-1
 128 64 l 1,26,-1
 352 64 l 1,27,-1
 352 0 l 1,28,-1
 64 0 l 1,15,-1
EndSplineSet
EndChar

StartChar: iacute
Encoding: 237 237 110
Width: 177
Flags: W
LayerCount: 2
Fore
SplineSet
64 400 m 5,0,-1
 64 446 l 5,1,-1
 128 446 l 5,2,-1
 128 400 l 5,3,-1
 64 400 l 5,0,-1
0 352 m 5,4,-1
 0 400 l 5,5,-1
 64 400 l 5,6,-1
 64 352 l 5,7,-1
 0 352 l 5,4,-1
64 400 m 1028,8,-1
64 400 m 1053,9,-1
0 352 m 1029,10,-1
0 0 m 1,11,-1
 0 288 l 1,12,-1
 128 288 l 1,13,-1
 128 0 l 1,14,-1
 0 0 l 1,11,-1
EndSplineSet
EndChar

StartChar: oacute
Encoding: 243 243 111
Width: 433
Flags: W
LayerCount: 2
Fore
SplineSet
192 422 m 5,0,-1
 192 468 l 5,1,-1
 255 468 l 5,2,-1
 255 422 l 5,3,-1
 192 422 l 5,0,-1
127 374 m 5,4,-1
 127 422 l 5,5,-1
 191 422 l 5,6,-1
 191 374 l 5,7,-1
 127 374 l 5,4,-1
191 422 m 1028,8,-1
191 422 m 1053,9,-1
127 374 m 1029,10,-1
256 64 m 1,11,-1
 256 256 l 1,12,-1
 128 256 l 1,13,-1
 128 64 l 1,14,-1
 256 64 l 1,11,-1
64 0 m 1,15,-1
 64 64 l 1,16,-1
 0 64 l 1,17,-1
 0 256 l 1,18,-1
 64 256 l 1,19,-1
 64 320 l 1,20,-1
 320 320 l 1,21,-1
 320 256 l 1,22,-1
 384 256 l 1,23,-1
 384 64 l 1,24,-1
 320 64 l 1,25,-1
 320 0 l 1,26,-1
 64 0 l 1,15,-1
EndSplineSet
EndChar

StartChar: uacute
Encoding: 250 250 112
Width: 433
Flags: W
LayerCount: 2
Fore
SplineSet
192 422 m 5,0,-1
 192 468 l 5,1,-1
 255 468 l 5,2,-1
 255 422 l 5,3,-1
 192 422 l 5,0,-1
127 374 m 5,4,-1
 127 422 l 5,5,-1
 191 422 l 5,6,-1
 191 374 l 5,7,-1
 127 374 l 5,4,-1
191 422 m 1028,8,-1
191 422 m 1053,9,-1
127 374 m 1029,10,-1
64 0 m 1,11,-1
 64 64 l 1,12,-1
 0 64 l 1,13,-1
 0 320 l 1,14,-1
 128 320 l 1,15,-1
 128 64 l 1,16,-1
 256 64 l 1,17,-1
 256 320 l 1,18,-1
 384 320 l 1,19,-1
 384 0 l 1,20,-1
 64 0 l 1,11,-1
EndSplineSet
EndChar

StartChar: Aacute
Encoding: 193 193 113
Width: 497
Flags: W
LayerCount: 2
Fore
SplineSet
225 548 m 5,0,-1
 225 594 l 5,1,-1
 288 594 l 5,2,-1
 288 548 l 5,3,-1
 225 548 l 5,0,-1
160 500 m 5,4,-1
 160 548 l 5,5,-1
 224 548 l 5,6,-1
 224 500 l 5,7,-1
 160 500 l 5,4,-1
224 548 m 1028,8,-1
224 548 m 1053,9,-1
160 500 m 1029,10,-1
320 192 m 1,11,-1
 320 320 l 1,12,-1
 256 320 l 1,13,-1
 256 384 l 1,14,-1
 192 384 l 1,15,-1
 192 320 l 1,16,-1
 128 320 l 1,17,-1
 128 192 l 1,18,-1
 320 192 l 1,11,-1
0 0 m 1,19,-1
 0 320 l 1,20,-1
 64 320 l 1,21,-1
 64 384 l 1,22,-1
 128 384 l 1,23,-1
 128 448 l 1,24,-1
 320 448 l 1,25,-1
 320 384 l 1,26,-1
 384 384 l 1,27,-1
 384 320 l 1,28,-1
 448 320 l 1,29,-1
 448 0 l 1,30,-1
 320 0 l 1,31,-1
 320 128 l 1,32,-1
 128 128 l 1,33,-1
 128 0 l 1,34,-1
 0 0 l 1,19,-1
EndSplineSet
EndChar

StartChar: Eacute
Encoding: 201 201 114
Width: 401
Flags: W
LayerCount: 2
Fore
SplineSet
225 548 m 5,0,-1
 225 594 l 5,1,-1
 288 594 l 5,2,-1
 288 548 l 5,3,-1
 225 548 l 5,0,-1
160 500 m 5,4,-1
 160 548 l 5,5,-1
 224 548 l 5,6,-1
 224 500 l 5,7,-1
 160 500 l 5,4,-1
224 548 m 1028,8,-1
224 548 m 1053,9,-1
160 500 m 1029,10,-1
0 0 m 1,11,-1
 0 448 l 1,12,-1
 352 448 l 1,13,-1
 352 384 l 1,14,-1
 128 384 l 1,15,-1
 128 256 l 1,16,-1
 288 256 l 1,17,-1
 288 192 l 1,18,-1
 128 192 l 1,19,-1
 128 64 l 1,20,-1
 352 64 l 1,21,-1
 352 0 l 1,22,-1
 0 0 l 1,11,-1
EndSplineSet
EndChar

StartChar: Oacute
Encoding: 211 211 115
Width: 497
Flags: W
LayerCount: 2
Fore
SplineSet
225 548 m 5,0,-1
 225 594 l 5,1,-1
 288 594 l 5,2,-1
 288 548 l 5,3,-1
 225 548 l 5,0,-1
160 500 m 5,4,-1
 160 548 l 5,5,-1
 224 548 l 5,6,-1
 224 500 l 5,7,-1
 160 500 l 5,4,-1
224 548 m 1028,8,-1
224 548 m 1053,9,-1
160 500 m 1029,10,-1
320 64 m 1,11,-1
 320 384 l 1,12,-1
 128 384 l 1,13,-1
 128 64 l 1,14,-1
 320 64 l 1,11,-1
64 0 m 1,15,-1
 64 64 l 1,16,-1
 0 64 l 1,17,-1
 0 384 l 1,18,-1
 64 384 l 1,19,-1
 64 448 l 1,20,-1
 384 448 l 1,21,-1
 384 384 l 1,22,-1
 448 384 l 1,23,-1
 448 64 l 1,24,-1
 384 64 l 1,25,-1
 384 0 l 1,26,-1
 64 0 l 1,15,-1
EndSplineSet
EndChar

StartChar: Uacute
Encoding: 218 218 116
Width: 433
Flags: W
LayerCount: 2
Fore
SplineSet
225 548 m 5,0,-1
 225 594 l 5,1,-1
 288 594 l 5,2,-1
 288 548 l 5,3,-1
 225 548 l 5,0,-1
160 500 m 5,4,-1
 160 548 l 5,5,-1
 224 548 l 5,6,-1
 224 500 l 5,7,-1
 160 500 l 5,4,-1
224 548 m 1028,8,-1
224 548 m 1053,9,-1
160 500 m 1029,10,-1
64 0 m 1,11,-1
 64 64 l 1,12,-1
 0 64 l 1,13,-1
 0 448 l 1,14,-1
 128 448 l 1,15,-1
 128 64 l 1,16,-1
 256 64 l 1,17,-1
 256 448 l 1,18,-1
 384 448 l 1,19,-1
 384 64 l 1,20,-1
 320 64 l 1,21,-1
 320 0 l 1,22,-1
 64 0 l 1,11,-1
EndSplineSet
EndChar

StartChar: Iacute
Encoding: 205 205 117
Width: 433
Flags: W
LayerCount: 2
Fore
SplineSet
225 548 m 5,0,-1
 225 594 l 5,1,-1
 288 594 l 5,2,-1
 288 548 l 5,3,-1
 225 548 l 5,0,-1
160 500 m 5,4,-1
 160 548 l 5,5,-1
 224 548 l 5,6,-1
 224 500 l 5,7,-1
 160 500 l 5,4,-1
224 548 m 1028,8,-1
224 548 m 1053,9,-1
160 500 m 1029,10,-1
0 0 m 1,11,-1
 0 64 l 1,12,-1
 128 64 l 1,13,-1
 128 384 l 1,14,-1
 0 384 l 1,15,-1
 0 448 l 1,16,-1
 384 448 l 1,17,-1
 384 384 l 1,18,-1
 256 384 l 1,19,-1
 256 64 l 1,20,-1
 384 64 l 1,21,-1
 384 0 l 1,22,-1
 0 0 l 1,11,-1
EndSplineSet
EndChar

StartChar: ntilde
Encoding: 241 241 118
Width: 433
Flags: W
LayerCount: 2
Fore
SplineSet
39 375 m 5,0,-1
 39 423 l 5,1,-1
 103 423 l 5,2,-1
 103 375 l 5,3,-1
 39 375 l 5,0,-1
103 423 m 5,4,-1
 103 469 l 5,5,-1
 175 469 l 5,6,-1
 175 423 l 5,7,-1
 103 423 l 5,4,-1
239 423 m 5,8,-1
 239 469 l 5,9,-1
 303 469 l 5,10,-1
 303 423 l 5,11,-1
 239 423 l 5,8,-1
175 375 m 5,12,-1
 175 423 l 5,13,-1
 239 423 l 5,14,-1
 239 375 l 5,15,-1
 175 375 l 5,12,-1
239 423 m 1028,16,-1
239 423 m 1053,17,-1
175 375 m 1029,18,-1
0 0 m 1,19,-1
 0 320 l 1,20,-1
 320 320 l 1,21,-1
 320 256 l 1,22,-1
 384 256 l 1,23,-1
 384 0 l 1,24,-1
 256 0 l 1,25,-1
 256 256 l 1,26,-1
 128 256 l 1,27,-1
 128 0 l 1,28,-1
 0 0 l 1,19,-1
EndSplineSet
EndChar

StartChar: Ntilde
Encoding: 209 209 119
Width: 497
Flags: W
LayerCount: 2
Fore
SplineSet
100 525 m 5,0,-1
 100 573 l 5,1,-1
 164 573 l 5,2,-1
 164 525 l 5,3,-1
 100 525 l 5,0,-1
164 573 m 5,4,-1
 164 619 l 5,5,-1
 236 619 l 5,6,-1
 236 573 l 5,7,-1
 164 573 l 5,4,-1
300 573 m 5,8,-1
 300 619 l 5,9,-1
 364 619 l 5,10,-1
 364 573 l 5,11,-1
 300 573 l 5,8,-1
236 525 m 5,12,-1
 236 573 l 5,13,-1
 300 573 l 5,14,-1
 300 525 l 5,15,-1
 236 525 l 5,12,-1
300 573 m 1028,16,-1
300 573 m 1053,17,-1
236 525 m 1029,18,-1
0 0 m 1,19,-1
 0 448 l 1,20,-1
 128 448 l 1,21,-1
 128 384 l 1,22,-1
 192 384 l 1,23,-1
 192 320 l 1,24,-1
 256 320 l 1,25,-1
 256 256 l 1,26,-1
 320 256 l 1,27,-1
 320 448 l 1,28,-1
 448 448 l 1,29,-1
 448 0 l 1,30,-1
 320 0 l 1,31,-1
 320 64 l 1,32,-1
 256 64 l 1,33,-1
 256 128 l 1,34,-1
 192 128 l 1,35,-1
 192 192 l 1,36,-1
 128 192 l 1,37,-1
 128 0 l 1,38,-1
 0 0 l 1,19,-1
EndSplineSet
EndChar

StartChar: questiondown
Encoding: 191 191 120
Width: 433
Flags: W
LayerCount: 2
Fore
SplineSet
264.584960938 456.23046875 m 5,0,-1
 265.520507812 392.237304688 l 5,1,-1
 137.53515625 390.365234375 l 5,2,-1
 136.598632812 454.359375 l 5,3,-1
 264.584960938 456.23046875 l 5,0,-1
265.989257812 360.240234375 m 5,4,-1
 267.392578125 264.250976562 l 5,5,-1
 139.40625 262.37890625 l 5,6,-1
 142.212890625 70.3994140625 l 5,7,-1
 270.200195312 72.271484375 l 5,8,-1
 268.328125 200.256835938 l 5,9,-1
 396.314453125 202.129882812 l 5,10,-1
 398.186523438 74.142578125 l 5,11,-1
 334.192382812 73.20703125 l 5,12,-1
 335.12890625 9.2119140625 l 5,13,-1
 79.15625 5.470703125 l 5,14,-1
 78.220703125 69.4638671875 l 5,15,-1
 14.2275390625 68.5283203125 l 5,16,-1
 11.419921875 260.5078125 l 5,17,-1
 75.412109375 261.443359375 l 5,18,-1
 74.4765625 325.4375 l 5,19,-1
 138.470703125 326.373046875 l 5,20,-1
 138.001953125 358.369140625 l 5,21,-1
 265.989257812 360.240234375 l 5,4,-1
EndSplineSet
EndChar

StartChar: exclamdown
Encoding: 161 161 121
Width: 305
Flags: WO
LayerCount: 2
Fore
SplineSet
64 449 m 1,0,-1
 64 385 l 1,1,-1
 192 385 l 1,2,-1
 192 449 l 1,3,-1
 64 449 l 1,0,-1
64 321 m 1,4,-1
 64 225 l 1,5,-1
 0 225 l 1,6,-1
 0 65 l 1,7,-1
 64 65 l 1,8,-1
 64 1 l 1,9,-1
 192 1 l 1,10,-1
 192 65 l 1,11,-1
 256 65 l 1,12,-1
 256 225 l 1,13,-1
 192 225 l 1,14,-1
 192 321 l 1,15,-1
 64 321 l 1,4,-1
EndSplineSet
EndChar
